<svg width="28" height="28" viewBox="0 0 28 28" fill="none" xmlns="http://www.w3.org/2000/svg">
<path fill-rule="evenodd" clip-rule="evenodd" d="M9.61328 15.4583C10.3868 15.4583 11.1287 15.7656 11.6757 16.3126C12.2227 16.8596 12.5299 17.6015 12.5299 18.375V24.2083C12.5299 24.9819 12.2227 25.7237 11.6757 26.2707C11.1287 26.8177 10.3868 27.125 9.61328 27.125H3.77995C3.0064 27.125 2.26453 26.8177 1.71755 26.2707C1.17057 25.7237 0.863281 24.9819 0.863281 24.2083V18.375C0.863281 17.6015 1.17057 16.8596 1.71755 16.3126C2.26453 15.7656 3.0064 15.4583 3.77995 15.4583H9.61328ZM24.1966 15.4583C24.9702 15.4583 25.712 15.7656 26.259 16.3126C26.806 16.8596 27.1133 17.6015 27.1133 18.375V24.2083C27.1133 24.9819 26.806 25.7237 26.259 26.2707C25.712 26.8177 24.9702 27.125 24.1966 27.125H18.3633C17.5897 27.125 16.8479 26.8177 16.3009 26.2707C15.7539 25.7237 15.4466 24.9819 15.4466 24.2083V18.375C15.4466 17.6015 15.7539 16.8596 16.3009 16.3126C16.8479 15.7656 17.5897 15.4583 18.3633 15.4583H24.1966ZM9.61328 0.875C10.3868 0.875 11.1287 1.18229 11.6757 1.72927C12.2227 2.27625 12.5299 3.01812 12.5299 3.79167V9.625C12.5299 10.3985 12.2227 11.1404 11.6757 11.6874C11.1287 12.2344 10.3868 12.5417 9.61328 12.5417H3.77995C3.0064 12.5417 2.26453 12.2344 1.71755 11.6874C1.17057 11.1404 0.863281 10.3985 0.863281 9.625V3.79167C0.863281 3.01812 1.17057 2.27625 1.71755 1.72927C2.26453 1.18229 3.0064 0.875 3.77995 0.875H9.61328ZM24.1966 0.875C24.9702 0.875 25.712 1.18229 26.259 1.72927C26.806 2.27625 27.1133 3.01812 27.1133 3.79167V9.625C27.1133 10.3985 26.806 11.1404 26.259 11.6874C25.712 12.2344 24.9702 12.5417 24.1966 12.5417H18.3633C17.5897 12.5417 16.8479 12.2344 16.3009 11.6874C15.7539 11.1404 15.4466 10.3985 15.4466 9.625V3.79167C15.4466 3.01812 15.7539 2.27625 16.3009 1.72927C16.8479 1.18229 17.5897 0.875 18.3633 0.875H24.1966Z" fill="#A5A5A5"/>
</svg>
