<svg width="28" height="28" viewBox="0 0 28 28" fill="none" xmlns="http://www.w3.org/2000/svg">
<path fill-rule="evenodd" clip-rule="evenodd" d="M9.625 15.4583C10.3985 15.4583 11.1404 15.7656 11.6874 16.3126C12.2344 16.8596 12.5417 17.6015 12.5417 18.375V24.2083C12.5417 24.9819 12.2344 25.7237 11.6874 26.2707C11.1404 26.8177 10.3985 27.125 9.625 27.125H3.79167C3.01812 27.125 2.27625 26.8177 1.72927 26.2707C1.18229 25.7237 0.875 24.9819 0.875 24.2083V18.375C0.875 17.6015 1.18229 16.8596 1.72927 16.3126C2.27625 15.7656 3.01812 15.4583 3.79167 15.4583H9.625ZM24.2083 15.4583C24.9819 15.4583 25.7237 15.7656 26.2707 16.3126C26.8177 16.8596 27.125 17.6015 27.125 18.375V24.2083C27.125 24.9819 26.8177 25.7237 26.2707 26.2707C25.7237 26.8177 24.9819 27.125 24.2083 27.125H18.375C17.6015 27.125 16.8596 26.8177 16.3126 26.2707C15.7656 25.7237 15.4583 24.9819 15.4583 24.2083V18.375C15.4583 17.6015 15.7656 16.8596 16.3126 16.3126C16.8596 15.7656 17.6015 15.4583 18.375 15.4583H24.2083ZM9.625 0.875C10.3985 0.875 11.1404 1.18229 11.6874 1.72927C12.2344 2.27625 12.5417 3.01812 12.5417 3.79167V9.625C12.5417 10.3985 12.2344 11.1404 11.6874 11.6874C11.1404 12.2344 10.3985 12.5417 9.625 12.5417H3.79167C3.01812 12.5417 2.27625 12.2344 1.72927 11.6874C1.18229 11.1404 0.875 10.3985 0.875 9.625V3.79167C0.875 3.01812 1.18229 2.27625 1.72927 1.72927C2.27625 1.18229 3.01812 0.875 3.79167 0.875H9.625ZM24.2083 0.875C24.9819 0.875 25.7237 1.18229 26.2707 1.72927C26.8177 2.27625 27.125 3.01812 27.125 3.79167V9.625C27.125 10.3985 26.8177 11.1404 26.2707 11.6874C25.7237 12.2344 24.9819 12.5417 24.2083 12.5417H18.375C17.6015 12.5417 16.8596 12.2344 16.3126 11.6874C15.7656 11.1404 15.4583 10.3985 15.4583 9.625V3.79167C15.4583 3.01812 15.7656 2.27625 16.3126 1.72927C16.8596 1.18229 17.6015 0.875 18.375 0.875H24.2083Z" fill="#EC8537"/>
</svg>
