<svg width="64" height="64" viewBox="0 0 64 64" fill="none" xmlns="http://www.w3.org/2000/svg">
<path d="M11.92 56.0018H52.08C56.1867 56.0018 58.7467 51.5484 56.6933 48.0018L36.6133 13.3084C34.56 9.76177 29.44 9.76177 27.3867 13.3084L7.30666 48.0018C5.25333 51.5484 7.81333 56.0018 11.92 56.0018ZM32 37.3351C30.5333 37.3351 29.3333 36.1351 29.3333 34.6684V29.3351C29.3333 27.8684 30.5333 26.6684 32 26.6684C33.4667 26.6684 34.6667 27.8684 34.6667 29.3351V34.6684C34.6667 36.1351 33.4667 37.3351 32 37.3351ZM34.6667 48.0018H29.3333V42.6684H34.6667V48.0018Z" fill="#FFBC44"/>
</svg>
