<svg width="64" height="64" viewBox="0 0 64 64" fill="none" xmlns="http://www.w3.org/2000/svg">
<path fill-rule="evenodd" clip-rule="evenodd" d="M32 56C35.1517 56 38.2726 55.3792 41.1844 54.1731C44.0962 52.967 46.742 51.1992 48.9706 48.9706C51.1992 46.742 52.967 44.0962 54.1731 41.1844C55.3792 38.2726 56 35.1517 56 32C56 28.8483 55.3792 25.7274 54.1731 22.8156C52.967 19.9038 51.1992 17.258 48.9706 15.0294C46.742 12.8008 44.0962 11.033 41.1844 9.82689C38.2726 8.62078 35.1517 8 32 8C25.6348 8 19.5303 10.5286 15.0294 15.0294C10.5286 19.5303 8 25.6348 8 32C8 38.3652 10.5286 44.4697 15.0294 48.9706C19.5303 53.4714 25.6348 56 32 56ZM31.3813 41.7067L44.7147 25.7067L40.6187 22.2933L29.152 36.0507L23.2187 30.1147L19.448 33.8853L27.448 41.8853L29.512 43.9493L31.3813 41.7067Z" fill="#17EBA0"/>
</svg>
