<svg width="20" height="21" viewBox="0 0 20 21" fill="none" xmlns="http://www.w3.org/2000/svg">
<path fill-rule="evenodd" clip-rule="evenodd" d="M10 20.8516C11.3132 20.8516 12.6136 20.5929 13.8268 20.0904C15.0401 19.5878 16.1425 18.8512 17.0711 17.9226C17.9997 16.994 18.7362 15.8917 19.2388 14.6784C19.7413 13.4651 20 12.1648 20 10.8516C20 9.53834 19.7413 8.23798 19.2388 7.02473C18.7362 5.81147 17.9997 4.70908 17.0711 3.78049C16.1425 2.85191 15.0401 2.11531 13.8268 1.61277C12.6136 1.11022 11.3132 0.851562 10 0.851563C7.34784 0.851563 4.8043 1.90513 2.92893 3.78049C1.05357 5.65586 0 8.1994 0 10.8516C0 13.5037 1.05357 16.0473 2.92893 17.9226C4.8043 19.798 7.34784 20.8516 10 20.8516ZM9.74222 14.896L15.2978 8.22934L13.5911 6.80712L8.81333 12.5393L6.34111 10.066L4.77 11.6371L8.10333 14.9705L8.96333 15.8305L9.74222 14.896Z" fill="#17EBA0"/>
</svg>
