<svg width="79" height="78" viewBox="0 0 79 78" fill="none" xmlns="http://www.w3.org/2000/svg">
<path d="M39.5 0C43.0801 0 46.5332 0.457031 49.8594 1.37109C53.1855 2.28516 56.2832 3.60547 59.1523 5.33203C62.0215 7.05859 64.6494 9.08984 67.0361 11.4258C69.4229 13.7617 71.4668 16.3896 73.168 19.3096C74.8691 22.2295 76.1768 25.3398 77.0908 28.6406C78.0049 31.9414 78.4746 35.3945 78.5 39C78.5 42.5801 78.043 46.0332 77.1289 49.3594C76.2148 52.6855 74.8945 55.7832 73.168 58.6523C71.4414 61.5215 69.4102 64.1494 67.0742 66.5361C64.7383 68.9229 62.1104 70.9668 59.1904 72.668C56.2705 74.3691 53.1602 75.6768 49.8594 76.5908C46.5586 77.5049 43.1055 77.9746 39.5 78C35.9199 78 32.4668 77.543 29.1406 76.6289C25.8145 75.7148 22.7168 74.3945 19.8477 72.668C16.9785 70.9414 14.3506 68.9102 11.9639 66.5742C9.57715 64.2383 7.5332 61.6104 5.83203 58.6904C4.13086 55.7705 2.82324 52.6602 1.90918 49.3594C0.995117 46.0586 0.525391 42.6055 0.5 39C0.5 35.4199 0.957031 31.9668 1.87109 28.6406C2.78516 25.3145 4.10547 22.2168 5.83203 19.3477C7.55859 16.4785 9.58984 13.8506 11.9258 11.4639C14.2617 9.07715 16.8896 7.0332 19.8096 5.33203C22.7295 3.63086 25.8398 2.32324 29.1406 1.40918C32.4414 0.495117 35.8945 0.0253906 39.5 0ZM62.4658 26.0889L57.2861 20.9092L32.1875 46.0078L21.7139 35.5342L16.5342 40.7139L32.1875 56.3672L62.4658 26.0889Z" fill="#7A923A"/>
</svg>
