<svg width="8" height="14" viewBox="0 0 8 14" fill="none" xmlns="http://www.w3.org/2000/svg">
<path d="M3.51766 13.68V0.519999H4.66566V13.68H3.51766ZM3.95166 12.14C3.18632 12.14 2.45366 12.0327 1.75366 11.818C1.05366 11.594 0.498323 11.3093 0.0876563 10.964L0.717656 9.55C1.10966 9.858 1.59499 10.1147 2.17366 10.32C2.75232 10.5253 3.34499 10.628 3.95166 10.628C4.46499 10.628 4.88032 10.572 5.19766 10.46C5.51499 10.348 5.74832 10.1987 5.89766 10.012C6.04699 9.816 6.12166 9.59667 6.12166 9.354C6.12166 9.05533 6.01432 8.81733 5.79966 8.64C5.58499 8.45333 5.30499 8.30867 4.95966 8.206C4.62366 8.094 4.24566 7.99133 3.82566 7.898C3.41499 7.80467 2.99966 7.69733 2.57966 7.576C2.16899 7.44533 1.79099 7.282 1.44566 7.086C1.10966 6.88067 0.834323 6.61 0.619656 6.274C0.40499 5.938 0.297656 5.50867 0.297656 4.986C0.297656 4.454 0.437656 3.96867 0.717656 3.53C1.00699 3.082 1.44099 2.72733 2.01966 2.466C2.60766 2.19533 3.34966 2.06 4.24566 2.06C4.83366 2.06 5.41699 2.13467 5.99566 2.284C6.57432 2.43333 7.07832 2.648 7.50766 2.928L6.93366 4.342C6.49499 4.08067 6.04232 3.88933 5.57566 3.768C5.10899 3.63733 4.66099 3.572 4.23166 3.572C3.72766 3.572 3.31699 3.63267 2.99966 3.754C2.69166 3.87533 2.46299 4.034 2.31366 4.23C2.17366 4.426 2.10366 4.65 2.10366 4.902C2.10366 5.20067 2.20632 5.44333 2.41166 5.63C2.62632 5.80733 2.90166 5.94733 3.23766 6.05C3.58299 6.15267 3.96566 6.25533 4.38566 6.358C4.80566 6.45133 5.22099 6.55867 5.63166 6.68C6.05166 6.80133 6.42966 6.96 6.76566 7.156C7.11099 7.352 7.38632 7.618 7.59166 7.954C7.80632 8.29 7.91366 8.71467 7.91366 9.228C7.91366 9.75067 7.76899 10.236 7.47966 10.684C7.19966 11.1227 6.76566 11.4773 6.17766 11.748C5.58966 12.0093 4.84766 12.14 3.95166 12.14Z" fill="black"/>
</svg>
