<svg width="13" height="12" viewBox="0 0 13 12" fill="none" xmlns="http://www.w3.org/2000/svg">
<g id="ep:arrow-down-bold">
<path id="Vector" d="M1.3292 3.96983C1.48156 3.82923 1.68819 3.75024 1.90364 3.75024C2.11908 3.75024 2.32571 3.82923 2.47807 3.96983L6.49995 7.68233L10.5218 3.96983C10.6751 3.83322 10.8803 3.75762 11.0933 3.75933C11.3064 3.76104 11.5102 3.83991 11.6608 3.97897C11.8114 4.11803 11.8969 4.30614 11.8987 4.50278C11.9006 4.69943 11.8187 4.88888 11.6707 5.03033L7.07438 9.27308C6.92202 9.41369 6.71539 9.49267 6.49995 9.49267C6.2845 9.49267 6.07788 9.41369 5.92551 9.27308L1.3292 5.03033C1.17688 4.88969 1.09131 4.69896 1.09131 4.50008C1.09131 4.30121 1.17688 4.11048 1.3292 3.96983Z" fill="#111010"/>
</g>
</svg>
