<svg width="102" height="40" viewBox="0 0 102 40" fill="none" xmlns="http://www.w3.org/2000/svg">
<rect x="0.5" y="0.5" width="101" height="39" rx="11.5" fill="white"/>
<rect x="0.5" y="0.5" width="101" height="39" rx="11.5" stroke="#B64201"/>
<path d="M21 28.2471C20.4477 28.2471 20 27.7994 20 27.2471C20 26.6948 20.4477 26.2471 21 26.2471H35C35.5523 26.2471 36 26.6948 36 27.2471C36 27.7994 35.5523 28.2471 35 28.2471H21Z" fill="#B64201"/>
<path d="M30.9718 13.7797C30.8123 13.6216 30.5533 13.6216 30.3935 13.7797L22.7027 21.3794L21.314 24.2118C21.1913 24.5927 21.0606 24.7808 21.3547 25.0715C21.6488 25.3622 21.839 25.233 22.2243 25.1117L25.0818 23.7314L32.7805 16.1391C32.9403 15.9814 32.9403 15.7254 32.7805 15.5674L30.9718 13.7797Z" fill="#B64201"/>
<path d="M31.7108 12.4501C31.5743 12.5852 31.5743 12.8045 31.7108 12.9395L33.6028 14.8095C33.7394 14.945 33.9612 14.945 34.0978 14.8095L34.44 14.4957C34.9551 13.986 34.9551 13.1602 34.44 12.6506L33.9189 12.1359C33.4038 11.6266 32.5681 11.6266 32.053 12.1359L31.7108 12.4501Z" fill="#B64201"/>
<path d="M51.3513 19.632H57.1113V20.992H51.3513V19.632ZM51.4953 24.608H58.0233V26H49.8953V14.8H57.7993V16.192H51.4953V24.608ZM64.1047 26.096C63.2834 26.096 62.5474 25.9147 61.8967 25.552C61.2567 25.1893 60.75 24.6827 60.3767 24.032C60.0034 23.3813 59.8167 22.624 59.8167 21.76C59.8167 20.896 60.0034 20.144 60.3767 19.504C60.75 18.8533 61.2567 18.3467 61.8967 17.984C62.5474 17.6213 63.2834 17.44 64.1047 17.44C64.8194 17.44 65.4647 17.6 66.0407 17.92C66.6167 18.24 67.0754 18.72 67.4167 19.36C67.7687 20 67.9447 20.8 67.9447 21.76C67.9447 22.72 67.774 23.52 67.4327 24.16C67.102 24.8 66.6487 25.2853 66.0727 25.616C65.4967 25.936 64.8407 26.096 64.1047 26.096ZM64.2327 24.752C64.766 24.752 65.246 24.6293 65.6727 24.384C66.11 24.1387 66.4514 23.792 66.6967 23.344C66.9527 22.8853 67.0807 22.3573 67.0807 21.76C67.0807 21.152 66.9527 20.6293 66.6967 20.192C66.4514 19.744 66.11 19.3973 65.6727 19.152C65.246 18.9067 64.766 18.784 64.2327 18.784C63.6887 18.784 63.2034 18.9067 62.7767 19.152C62.35 19.3973 62.0087 19.744 61.7527 20.192C61.4967 20.6293 61.3687 21.152 61.3687 21.76C61.3687 22.3573 61.4967 22.8853 61.7527 23.344C62.0087 23.792 62.35 24.1387 62.7767 24.384C63.2034 24.6293 63.6887 24.752 64.2327 24.752ZM67.1287 26V23.712L67.2247 21.744L67.0647 19.776V14.128H68.6007V26H67.1287ZM71.8269 26V17.52H73.3629V26H71.8269ZM72.5949 15.888C72.2963 15.888 72.0456 15.792 71.8429 15.6C71.6509 15.408 71.5549 15.1733 71.5549 14.896C71.5549 14.608 71.6509 14.368 71.8429 14.176C72.0456 13.984 72.2963 13.888 72.5949 13.888C72.8936 13.888 73.1389 13.984 73.3309 14.176C73.5336 14.3573 73.6349 14.5867 73.6349 14.864C73.6349 15.152 73.5389 15.3973 73.3469 15.6C73.1549 15.792 72.9043 15.888 72.5949 15.888ZM79.5277 26.096C78.6744 26.096 78.013 25.8667 77.5437 25.408C77.0744 24.9493 76.8397 24.2933 76.8397 23.44V15.664H78.3757V23.376C78.3757 23.8347 78.4877 24.1867 78.7117 24.432C78.9464 24.6773 79.277 24.8 79.7037 24.8C80.1837 24.8 80.5837 24.6667 80.9037 24.4L81.3837 25.504C81.149 25.7067 80.8664 25.856 80.5357 25.952C80.2157 26.048 79.8797 26.096 79.5277 26.096ZM75.3997 18.784V17.52H80.8077V18.784H75.3997Z" fill="#B64201"/>
</svg>
