<svg width="43" height="43" viewBox="0 0 43 43" fill="none" xmlns="http://www.w3.org/2000/svg">
<path d="M36.2812 18.8118V34.9368C36.2812 35.6496 35.9981 36.3332 35.4941 36.8372C34.9901 37.3412 34.3065 37.6243 33.5938 37.6243H9.40625C8.69348 37.6243 8.0099 37.3412 7.5059 36.8372C7.0019 36.3332 6.71875 35.6496 6.71875 34.9368V18.8118C6.71875 18.0991 7.0019 17.4155 7.5059 16.9115C8.0099 16.4075 8.69348 16.1243 9.40625 16.1243H13.4375C13.7939 16.1243 14.1357 16.2659 14.3877 16.5179C14.6397 16.7699 14.7812 17.1117 14.7812 17.4681C14.7812 17.8245 14.6397 18.1663 14.3877 18.4183C14.1357 18.6703 13.7939 18.8118 13.4375 18.8118H9.40625V34.9368H33.5938V18.8118H29.5625C29.2061 18.8118 28.8643 18.6703 28.6123 18.4183C28.3603 18.1663 28.2188 17.8245 28.2188 17.4681C28.2188 17.1117 28.3603 16.7699 28.6123 16.5179C28.8643 16.2659 29.2061 16.1243 29.5625 16.1243H33.5938C34.3065 16.1243 34.9901 16.4075 35.4941 16.9115C35.9981 17.4155 36.2812 18.0991 36.2812 18.8118ZM15.732 11.7001L20.1562 7.27407V22.8431C20.1562 23.1995 20.2978 23.5413 20.5498 23.7933C20.8018 24.0453 21.1436 24.1868 21.5 24.1868C21.8564 24.1868 22.1982 24.0453 22.4502 23.7933C22.7022 23.5413 22.8438 23.1995 22.8438 22.8431V7.27407L27.268 11.7001C27.5202 11.9522 27.8622 12.0938 28.2188 12.0938C28.5753 12.0938 28.9173 11.9522 29.1695 11.7001C29.4216 11.4479 29.5632 11.1059 29.5632 10.7493C29.5632 10.3928 29.4216 10.0508 29.1695 9.79864L22.4507 3.07989C22.3259 2.95496 22.1777 2.85584 22.0146 2.78822C21.8514 2.7206 21.6766 2.68579 21.5 2.68579C21.3234 2.68579 21.1486 2.7206 20.9854 2.78822C20.8223 2.85584 20.6741 2.95496 20.5493 3.07989L13.8305 9.79864C13.5784 10.0508 13.4368 10.3928 13.4368 10.7493C13.4368 11.1059 13.5784 11.4479 13.8305 11.7C14.0827 11.9522 14.4247 12.0938 14.7812 12.0938C15.1378 12.0938 15.4798 11.9522 15.732 11.7001Z" fill="#B64201"/>
</svg>
