<svg width="36" height="36" viewBox="0 0 36 36" fill="none" xmlns="http://www.w3.org/2000/svg">
<path fill-rule="evenodd" clip-rule="evenodd" d="M13.625 19.4583C14.3985 19.4583 15.1404 19.7656 15.6874 20.3126C16.2344 20.8596 16.5417 21.6015 16.5417 22.375V28.2083C16.5417 28.9819 16.2344 29.7237 15.6874 30.2707C15.1404 30.8177 14.3985 31.125 13.625 31.125H7.79167C7.01812 31.125 6.27625 30.8177 5.72927 30.2707C5.18229 29.7237 4.875 28.9819 4.875 28.2083V22.375C4.875 21.6015 5.18229 20.8596 5.72927 20.3126C6.27625 19.7656 7.01812 19.4583 7.79167 19.4583H13.625ZM28.2083 19.4583C28.9819 19.4583 29.7237 19.7656 30.2707 20.3126C30.8177 20.8596 31.125 21.6015 31.125 22.375V28.2083C31.125 28.9819 30.8177 29.7237 30.2707 30.2707C29.7237 30.8177 28.9819 31.125 28.2083 31.125H22.375C21.6015 31.125 20.8596 30.8177 20.3126 30.2707C19.7656 29.7237 19.4583 28.9819 19.4583 28.2083V22.375C19.4583 21.6015 19.7656 20.8596 20.3126 20.3126C20.8596 19.7656 21.6015 19.4583 22.375 19.4583H28.2083ZM13.625 4.875C14.3985 4.875 15.1404 5.18229 15.6874 5.72927C16.2344 6.27625 16.5417 7.01812 16.5417 7.79167V13.625C16.5417 14.3985 16.2344 15.1404 15.6874 15.6874C15.1404 16.2344 14.3985 16.5417 13.625 16.5417H7.79167C7.01812 16.5417 6.27625 16.2344 5.72927 15.6874C5.18229 15.1404 4.875 14.3985 4.875 13.625V7.79167C4.875 7.01812 5.18229 6.27625 5.72927 5.72927C6.27625 5.18229 7.01812 4.875 7.79167 4.875H13.625ZM28.2083 4.875C28.9819 4.875 29.7237 5.18229 30.2707 5.72927C30.8177 6.27625 31.125 7.01812 31.125 7.79167V13.625C31.125 14.3985 30.8177 15.1404 30.2707 15.6874C29.7237 16.2344 28.9819 16.5417 28.2083 16.5417H22.375C21.6015 16.5417 20.8596 16.2344 20.3126 15.6874C19.7656 15.1404 19.4583 14.3985 19.4583 13.625V7.79167C19.4583 7.01812 19.7656 6.27625 20.3126 5.72927C20.8596 5.18229 21.6015 4.875 22.375 4.875H28.2083Z" fill="#EC8537"/>
</svg>
