<svg width="32" height="32" viewBox="0 0 32 32" fill="none" xmlns="http://www.w3.org/2000/svg">
<g id="ic:baseline-radio-button-checked">
<path id="Vector" d="M16 9.33317C12.32 9.33317 9.33335 12.3198 9.33335 15.9998C9.33335 19.6798 12.32 22.6665 16 22.6665C19.68 22.6665 22.6667 19.6798 22.6667 15.9998C22.6667 12.3198 19.68 9.33317 16 9.33317ZM16 2.6665C8.64002 2.6665 2.66669 8.63984 2.66669 15.9998C2.66669 23.3598 8.64002 29.3332 16 29.3332C23.36 29.3332 29.3334 23.3598 29.3334 15.9998C29.3334 8.63984 23.36 2.6665 16 2.6665ZM16 26.6665C10.1067 26.6665 5.33335 21.8932 5.33335 15.9998C5.33335 10.1065 10.1067 5.33317 16 5.33317C21.8934 5.33317 26.6667 10.1065 26.6667 15.9998C26.6667 21.8932 21.8934 26.6665 16 26.6665Z" fill="#B64201"/>
</g>
</svg>
