<svg width="18" height="19" viewBox="0 0 18 19" fill="none" xmlns="http://www.w3.org/2000/svg">
<path id="Vector" d="M2 18.2715C1.45 18.2715 0.979333 18.0758 0.588 17.6845C0.196667 17.2932 0.000666667 16.8222 0 16.2715V2.27148C0 1.72148 0.196 1.25082 0.588 0.859484C0.98 0.468151 1.45067 0.272151 2 0.271484H16C16.55 0.271484 17.021 0.467484 17.413 0.859484C17.805 1.25148 18.0007 1.72215 18 2.27148V16.2715C18 16.8215 17.8043 17.2925 17.413 17.6845C17.0217 18.0765 16.5507 18.2722 16 18.2715H2ZM3 14.2715H15L11.25 9.27148L8.25 13.2715L6 10.2715L3 14.2715Z" fill="#111010"/>
</svg>
