<svg width="28" height="28" viewBox="0 0 28 28" fill="none" xmlns="http://www.w3.org/2000/svg">
<g id="fluent:ios-arrow-24-filled">
<path id="Vector" d="M14.8482 4.30147C14.9534 4.19008 15.0357 4.05906 15.0903 3.91588C15.1449 3.77269 15.1708 3.62015 15.1665 3.46697C15.1621 3.31378 15.1277 3.16295 15.0651 3.02308C15.0024 2.88322 14.9129 2.75705 14.8015 2.6518C14.6901 2.54654 14.5591 2.46426 14.4159 2.40964C14.2727 2.35502 14.1202 2.32914 13.967 2.33347C13.8138 2.33781 13.663 2.37227 13.5231 2.4349C13.3832 2.49752 13.2571 2.58708 13.1518 2.69847L3.23516 13.1985C3.03037 13.4151 2.91626 13.7019 2.91626 14C2.91626 14.2981 3.03037 14.5849 3.23516 14.8015L13.1518 25.3026C13.2564 25.4165 13.3825 25.5084 13.5229 25.573C13.6633 25.6377 13.8151 25.6738 13.9696 25.6793C14.124 25.6848 14.278 25.6595 14.4227 25.605C14.5673 25.5505 14.6996 25.4677 14.812 25.3616C14.9244 25.2555 15.0145 25.1281 15.0773 24.9869C15.14 24.8456 15.174 24.6933 15.1774 24.5388C15.1808 24.3843 15.1534 24.2306 15.0969 24.0867C15.0403 23.9429 14.9558 23.8117 14.8482 23.7008L5.68749 14L14.8482 4.30147Z" fill="#CDCACA"/>
</g>
</svg>
