<svg width="13" height="24" viewBox="0 0 13 24" fill="none" xmlns="http://www.w3.org/2000/svg">
<path id="Vector" d="M11.9319 2.295C12.0372 2.18361 12.1194 2.05259 12.1741 1.90941C12.2287 1.76622 12.2546 1.61368 12.2502 1.4605C12.2459 1.30731 12.2114 1.15648 12.1488 1.01661C12.0862 0.876745 11.9966 0.750583 11.8852 0.645329C11.7738 0.540074 11.6428 0.457789 11.4996 0.403171C11.3565 0.348553 11.2039 0.322671 11.0507 0.327005C10.8975 0.331338 10.7467 0.365801 10.6068 0.428426C10.467 0.491052 10.3408 0.580612 10.2356 0.691995L0.3189 11.192C0.114107 11.4086 0 11.6954 0 11.9935C0 12.2916 0.114107 12.5784 0.3189 12.795L10.2356 23.2962C10.3401 23.41 10.4663 23.5019 10.6066 23.5666C10.747 23.6312 10.8989 23.6673 11.0533 23.6728C11.2078 23.6783 11.3618 23.6531 11.5064 23.5985C11.651 23.544 11.7834 23.4613 11.8957 23.3551C12.0081 23.249 12.0983 23.1216 12.161 22.9804C12.2237 22.8391 12.2578 22.6868 12.2611 22.5323C12.2645 22.3778 12.2371 22.2241 12.1806 22.0803C12.1241 21.9364 12.0395 21.8052 11.9319 21.6943L2.77123 11.9935L11.9319 2.295Z" fill="white"/>
</svg>
