<svg width="29" height="21" viewBox="0 0 29 21" fill="none" xmlns="http://www.w3.org/2000/svg">
<path d="M28.1719 10.5C28.1719 10.9351 27.999 11.3524 27.6913 11.6601C27.3837 11.9678 26.9664 12.1406 26.5312 12.1406H2.46875C2.03363 12.1406 1.61633 11.9678 1.30865 11.6601C1.00098 11.3524 0.828125 10.9351 0.828125 10.5C0.828125 10.0649 1.00098 9.64758 1.30865 9.3399C1.61633 9.03223 2.03363 8.85938 2.46875 8.85938H26.5312C26.9664 8.85938 27.3837 9.03223 27.6913 9.3399C27.999 9.64758 28.1719 10.0649 28.1719 10.5ZM2.46875 3.39062H26.5312C26.9664 3.39062 27.3837 3.21777 27.6913 2.9101C27.999 2.60242 28.1719 2.18512 28.1719 1.75C28.1719 1.31488 27.999 0.89758 27.6913 0.589903C27.3837 0.282226 26.9664 0.109375 26.5312 0.109375H2.46875C2.03363 0.109375 1.61633 0.282226 1.30865 0.589903C1.00098 0.89758 0.828125 1.31488 0.828125 1.75C0.828125 2.18512 1.00098 2.60242 1.30865 2.9101C1.61633 3.21777 2.03363 3.39062 2.46875 3.39062ZM26.5312 17.6094H2.46875C2.03363 17.6094 1.61633 17.7822 1.30865 18.0899C1.00098 18.3976 0.828125 18.8149 0.828125 19.25C0.828125 19.6851 1.00098 20.1024 1.30865 20.4101C1.61633 20.7178 2.03363 20.8906 2.46875 20.8906H26.5312C26.9664 20.8906 27.3837 20.7178 27.6913 20.4101C27.999 20.1024 28.1719 19.6851 28.1719 19.25C28.1719 18.8149 27.999 18.3976 27.6913 18.0899C27.3837 17.7822 26.9664 17.6094 26.5312 17.6094Z" fill="#A5A5A5"/>
</svg>
