<svg width="29" height="21" viewBox="0 0 29 21" fill="none" xmlns="http://www.w3.org/2000/svg">
<path d="M28.1597 10.5C28.1597 10.9351 27.9868 11.3524 27.6791 11.6601C27.3715 11.9678 26.9542 12.1406 26.519 12.1406H2.45654C2.02142 12.1406 1.60412 11.9678 1.29645 11.6601C0.988769 11.3524 0.815918 10.9351 0.815918 10.5C0.815918 10.0649 0.988769 9.64758 1.29645 9.3399C1.60412 9.03223 2.02142 8.85938 2.45654 8.85938H26.519C26.9542 8.85938 27.3715 9.03223 27.6791 9.3399C27.9868 9.64758 28.1597 10.0649 28.1597 10.5ZM2.45654 3.39062H26.519C26.9542 3.39062 27.3715 3.21777 27.6791 2.9101C27.9868 2.60242 28.1597 2.18512 28.1597 1.75C28.1597 1.31488 27.9868 0.89758 27.6791 0.589903C27.3715 0.282226 26.9542 0.109375 26.519 0.109375H2.45654C2.02142 0.109375 1.60412 0.282226 1.29645 0.589903C0.988769 0.89758 0.815918 1.31488 0.815918 1.75C0.815918 2.18512 0.988769 2.60242 1.29645 2.9101C1.60412 3.21777 2.02142 3.39062 2.45654 3.39062ZM26.519 17.6094H2.45654C2.02142 17.6094 1.60412 17.7822 1.29645 18.0899C0.988769 18.3976 0.815918 18.8149 0.815918 19.25C0.815918 19.6851 0.988769 20.1024 1.29645 20.4101C1.60412 20.7178 2.02142 20.8906 2.45654 20.8906H26.519C26.9542 20.8906 27.3715 20.7178 27.6791 20.4101C27.9868 20.1024 28.1597 19.6851 28.1597 19.25C28.1597 18.8149 27.9868 18.3976 27.6791 18.0899C27.3715 17.7822 26.9542 17.6094 26.519 17.6094Z" fill="#EC8537"/>
</svg>
