<svg width="28" height="24" viewBox="0 0 28 24" fill="none" xmlns="http://www.w3.org/2000/svg">
<g id="mdi:filter">
<path id="Vector" d="M14.0001 12V19.88C14.0401 20.18 13.9401 20.5 13.7101 20.71C13.6176 20.8027 13.5077 20.8762 13.3868 20.9264C13.2658 20.9766 13.1361 21.0024 13.0051 21.0024C12.8742 21.0024 12.7445 20.9766 12.6235 20.9264C12.5025 20.8762 12.3926 20.8027 12.3001 20.71L10.2901 18.7C10.1811 18.5934 10.0981 18.463 10.0478 18.319C9.99752 18.175 9.9812 18.0213 10.0001 17.87V12H9.97013L4.21013 4.62C4.04774 4.41153 3.97446 4.14726 4.00632 3.88493C4.03817 3.6226 4.17257 3.38355 4.38013 3.22C4.57013 3.08 4.78013 3 5.00013 3H19.0001C19.2201 3 19.4301 3.08 19.6201 3.22C19.8277 3.38355 19.9621 3.6226 19.9939 3.88493C20.0258 4.14726 19.9525 4.41153 19.7901 4.62L14.0301 12H14.0001Z" fill="#B64201"/>
</g>
</svg>
