<svg width="16" height="18" viewBox="0 0 16 18" fill="none" xmlns="http://www.w3.org/2000/svg">
<path d="M1 17.2471C0.447715 17.2471 0 16.7994 0 16.2471C0 15.6948 0.447715 15.2471 1 15.2471H15C15.5523 15.2471 16 15.6948 16 16.2471C16 16.7994 15.5523 17.2471 15 17.2471H1Z" fill="#B64201"/>
<path d="M10.9723 2.77967C10.8128 2.62162 10.5538 2.62162 10.394 2.77967L2.70319 10.3794L1.3145 13.2118C1.19174 13.5927 1.06108 13.7808 1.35516 14.0715C1.64924 14.3622 1.8395 14.233 2.22477 14.1117L5.08227 12.7314L12.7809 5.13908C12.9408 4.98143 12.9408 4.72543 12.7809 4.56738L10.9723 2.77967Z" fill="#B64201"/>
<path d="M11.7108 1.45013C11.5743 1.58515 11.5743 1.80447 11.7108 1.93949L13.6028 3.80954C13.7394 3.94496 13.9612 3.94496 14.0978 3.80954L14.44 3.49566C14.9551 2.986 14.9551 2.16025 14.44 1.65059L13.9189 1.13586C13.4038 0.626589 12.5681 0.626589 12.053 1.13586L11.7108 1.45013Z" fill="#B64201"/>
</svg>
