<svg width="19" height="20" viewBox="0 0 19 20" fill="none" xmlns="http://www.w3.org/2000/svg">
<path id="Vector" d="M8 18C8 18.3978 8.15804 18.7794 8.43934 19.0607C8.72064 19.342 9.10218 19.5 9.5 19.5C9.89782 19.5 10.2794 19.342 10.5607 19.0607C10.842 18.7794 11 18.3978 11 18V11.5H17.5C17.8978 11.5 18.2794 11.342 18.5607 11.0607C18.842 10.7794 19 10.3978 19 10C19 9.60218 18.842 9.22064 18.5607 8.93934C18.2794 8.65804 17.8978 8.5 17.5 8.5H11V2C11 1.60218 10.842 1.22064 10.5607 0.93934C10.2794 0.658035 9.89782 0.5 9.5 0.5C9.10218 0.5 8.72064 0.658035 8.43934 0.93934C8.15804 1.22064 8 1.60218 8 2V8.5H1.5C1.10218 8.5 0.720644 8.65804 0.43934 8.93934C0.158035 9.22064 0 9.60218 0 10C0 10.3978 0.158035 10.7794 0.43934 11.0607C0.720644 11.342 1.10218 11.5 1.5 11.5H8V18Z" fill="white"/>
</svg>
