<svg width="13" height="12" viewBox="0 0 13 12" fill="none" xmlns="http://www.w3.org/2000/svg">
<g id="ep:arrow-down-bold">
<path id="Vector" d="M11.6708 8.03017C11.5184 8.17077 11.3118 8.24976 11.0964 8.24976C10.8809 8.24976 10.6743 8.17077 10.5219 8.03017L6.50005 4.31767L2.47818 8.03017C2.32494 8.16678 2.1197 8.24238 1.90666 8.24067C1.69363 8.23896 1.48984 8.16009 1.3392 8.02103C1.18856 7.88197 1.10311 7.69386 1.10126 7.49722C1.0994 7.30057 1.1813 7.11112 1.3293 6.96967L5.92562 2.72692C6.07798 2.58631 6.28461 2.50733 6.50005 2.50733C6.7155 2.50733 6.92212 2.58631 7.07449 2.72692L11.6708 6.96967C11.8231 7.11031 11.9087 7.30104 11.9087 7.49992C11.9087 7.69879 11.8231 7.88952 11.6708 8.03017Z" fill="#111010"/>
</g>
</svg>
