<svg width="31" height="31" viewBox="0 0 31 31" fill="none" xmlns="http://www.w3.org/2000/svg">
<g id="grommet-icons:power-reset">
<path id="Vector" d="M25.8333 10.3333C24.0211 6.51 20.0686 3.875 15.5 3.875C13.9734 3.875 12.4617 4.17569 11.0513 4.7599C9.64089 5.34411 8.35936 6.2004 7.27988 7.27988C6.2004 8.35936 5.34411 9.64089 4.7599 11.0513C4.17569 12.4617 3.875 13.9734 3.875 15.5C3.875 17.0266 4.17569 18.5383 4.7599 19.9487C5.34411 21.3591 6.2004 22.6406 7.27988 23.7201C8.35936 24.7996 9.64089 25.6559 11.0513 26.2401C12.4617 26.8243 13.9734 27.125 15.5 27.125C18.5831 27.125 21.54 25.9002 23.7201 23.7201C25.9002 21.54 27.125 18.5831 27.125 15.5M27.125 3.875V11.625H19.375" stroke="#B64201" stroke-width="2.91667"/>
</g>
</svg>
