<svg width="28" height="28" viewBox="0 0 28 28" fill="none" xmlns="http://www.w3.org/2000/svg">
<g id="fluent:ios-arrow-24-filled">
<path id="Vector" d="M13.1518 4.30147C13.0466 4.19008 12.9643 4.05906 12.9097 3.91588C12.8551 3.77269 12.8292 3.62015 12.8335 3.46697C12.8379 3.31378 12.8723 3.16295 12.9349 3.02308C12.9976 2.88322 13.0871 2.75705 13.1985 2.6518C13.3099 2.54654 13.4409 2.46426 13.5841 2.40964C13.7273 2.35502 13.8798 2.32914 14.033 2.33347C14.1862 2.33781 14.337 2.37227 14.4769 2.4349C14.6168 2.49752 14.7429 2.58708 14.8482 2.69847L24.7648 13.1985C24.9696 13.4151 25.0837 13.7019 25.0837 14C25.0837 14.2981 24.9696 14.5849 24.7648 14.8015L14.8482 25.3026C14.7436 25.4165 14.6175 25.5084 14.4771 25.573C14.3367 25.6377 14.1849 25.6738 14.0304 25.6793C13.876 25.6848 13.722 25.6595 13.5773 25.605C13.4327 25.5505 13.3004 25.4677 13.188 25.3616C13.0756 25.2555 12.9855 25.1281 12.9227 24.9869C12.86 24.8456 12.826 24.6933 12.8226 24.5388C12.8192 24.3843 12.8466 24.2306 12.9031 24.0867C12.9597 23.9429 13.0442 23.8117 13.1518 23.7008L22.3125 14L13.1518 4.30147Z" fill="#CDCACA"/>
</g>
</svg>
