<svg width="13" height="24" viewBox="0 0 13 24" fill="none" xmlns="http://www.w3.org/2000/svg">
<path id="Vector" d="M1.0681 2.295C0.962846 2.18361 0.880562 2.05259 0.825943 1.90941C0.771325 1.76622 0.745443 1.61368 0.749777 1.4605C0.75411 1.30731 0.788573 1.15648 0.851199 1.01661C0.913824 0.876745 1.00338 0.750583 1.11477 0.645329C1.22615 0.540074 1.35717 0.457789 1.50036 0.403171C1.64354 0.348553 1.79608 0.322671 1.94927 0.327005C2.10245 0.331338 2.25328 0.365801 2.39315 0.428426C2.53302 0.491052 2.65918 0.580612 2.76443 0.691995L12.6811 11.192C12.8859 11.4086 13 11.6954 13 11.9935C13 12.2916 12.8859 12.5784 12.6811 12.795L2.76443 23.2962C2.65987 23.41 2.53374 23.5019 2.39336 23.5666C2.25298 23.6312 2.10115 23.6673 1.94669 23.6728C1.79223 23.6783 1.63822 23.6531 1.4936 23.5985C1.34898 23.544 1.21665 23.4613 1.10427 23.3551C0.991897 23.249 0.901728 23.1216 0.839 22.9804C0.776273 22.8391 0.742238 22.6868 0.738873 22.5323C0.735508 22.3778 0.762878 22.2241 0.819397 22.0803C0.875915 21.9364 0.960453 21.8052 1.0681 21.6943L10.2288 11.9935L1.0681 2.295Z" fill="white"/>
</svg>
