<?xml version="1.0" standalone="no"?>
<!DOCTYPE svg PUBLIC "-//W3C//DTD SVG 20010904//EN"
 "http://www.w3.org/TR/2001/REC-SVG-20010904/DTD/svg10.dtd">
<svg version="1.0" xmlns="http://www.w3.org/2000/svg"
 width="696.000000pt" height="696.000000pt" viewBox="0 0 696.000000 696.000000"
 preserveAspectRatio="xMidYMid meet">
<metadata>
Created by potrace 1.14, written by Peter Selinger 2001-2017
</metadata>
<g transform="translate(0.000000,696.000000) scale(0.100000,-0.100000)"
fill="#000000" stroke="none">
<path d="M61 6462 c-8 -3 -11 -191 -11 -637 0 -690 2 -725 57 -848 15 -34 31
-63 35 -65 4 -2 8 -8 8 -14 0 -23 86 -111 153 -155 63 -43 108 -61 250 -103
15 -5 92 -7 170 -6 157 4 230 21 342 79 73 39 180 144 218 214 35 66 65 159
73 231 4 31 7 337 8 679 1 616 1 623 -19 624 -85 5 -168 2 -171 -6 -2 -5 -5
-298 -7 -650 -2 -352 -6 -653 -10 -668 -59 -228 -215 -339 -467 -333 -52 2
-115 8 -140 15 -113 32 -205 106 -252 202 -52 106 -54 138 -53 814 0 344 -2
625 -5 626 -14 3 -170 4 -179 1z"/>
<path d="M1525 6458 c-2 -7 -3 -420 -2 -918 l2 -905 84 -3 c48 -2 87 1 90 7 9
14 6 1293 -3 1361 -4 33 -3 51 2 45 5 -5 37 -47 71 -92 34 -46 72 -93 84 -106
12 -12 38 -42 58 -67 21 -25 50 -60 65 -77 43 -49 91 -105 199 -233 54 -63
121 -142 150 -175 29 -33 65 -76 81 -95 16 -19 31 -37 34 -40 3 -3 28 -32 55
-65 28 -33 53 -62 56 -65 4 -3 33 -36 65 -75 33 -38 69 -81 81 -95 11 -14 47
-56 80 -95 103 -123 141 -161 153 -149 7 7 9 301 8 919 l-3 910 -87 0 -88 1 0
-31 c-4 -201 0 -1242 4 -1310 3 -49 3 -83 -1 -75 -3 8 -9 17 -12 20 -3 3 -19
23 -35 45 -34 46 -163 202 -186 225 -9 8 -45 50 -80 93 -36 43 -74 89 -85 101
-11 12 -40 46 -65 76 -25 30 -55 64 -67 77 -11 13 -36 42 -55 65 -18 23 -38
46 -44 52 -6 6 -51 58 -99 116 -49 58 -91 107 -94 110 -3 3 -42 48 -86 100
-44 52 -94 111 -112 130 -17 19 -42 49 -55 65 -12 17 -38 47 -57 67 -18 21
-40 47 -48 58 -20 29 -52 44 -58 28z"/>
<path d="M3099 6440 c0 -14 -1 -422 -2 -908 l-2 -883 100 3 100 3 0 904 0 905
-98 1 -97 1 -1 -26z"/>
<path d="M4357 6465 c-1 -2 -35 -5 -75 -9 -92 -7 -175 -28 -272 -68 -287 -118
-490 -376 -546 -693 -10 -62 -13 -226 -3 -281 4 -27 11 -67 14 -89 7 -42 42
-146 70 -205 118 -253 369 -439 665 -496 76 -14 395 -10 395 6 0 1 11 4 25 6
123 22 276 102 413 216 38 30 126 140 164 203 31 52 85 179 88 205 0 9 4 20 7
25 6 9 9 28 23 118 22 144 -1 344 -57 487 -86 221 -287 423 -497 500 -31 11
-63 24 -71 27 -18 8 -15 7 -65 18 -64 13 -67 14 -125 21 -57 7 -148 12 -153 9z
m193 -190 c241 -47 449 -227 534 -465 34 -94 39 -123 40 -270 1 -130 -2 -158
-30 -250 -71 -238 -277 -434 -513 -485 -11 -3 -31 -8 -43 -11 -51 -12 -231
-11 -296 3 -88 18 -124 31 -202 71 -137 71 -248 188 -310 327 -13 28 -26 57
-31 66 -21 44 -41 182 -41 284 1 353 218 643 537 717 6 1 25 7 44 14 36 12
247 12 311 -1z"/>
<path d="M5503 6463 c-10 -3 -13 -205 -12 -917 l0 -913 92 1 92 1 -1 640 c0
352 -3 671 -7 709 l-7 70 46 -60 c83 -107 137 -173 189 -230 6 -6 30 -35 55
-64 25 -29 50 -58 55 -64 6 -6 32 -38 60 -71 27 -33 65 -77 84 -97 19 -21 40
-47 48 -58 8 -11 24 -31 36 -43 12 -12 41 -45 64 -72 23 -28 51 -61 63 -75 12
-14 40 -47 63 -74 23 -27 73 -86 111 -130 75 -88 85 -100 166 -196 30 -36 60
-69 66 -75 5 -5 33 -37 62 -71 28 -33 58 -61 67 -61 14 0 15 94 13 916 l-3
916 -85 0 -85 0 0 -708 c0 -389 -1 -707 -2 -707 -1 0 -21 28 -46 63 -25 34
-53 72 -63 84 -11 12 -28 32 -39 45 -93 109 -311 365 -320 374 -5 6 -30 35
-55 64 -25 29 -49 58 -55 64 -5 6 -32 38 -60 71 -27 33 -55 65 -60 71 -6 6
-27 30 -46 54 -18 23 -45 54 -59 69 -14 15 -45 51 -70 81 -40 48 -158 187
-185 216 -5 7 -30 36 -55 65 -76 90 -104 117 -117 112z"/>
<path d="M508 4485 c-1 -2 -28 -6 -58 -10 -73 -8 -167 -53 -215 -101 -21 -22
-49 -64 -64 -94 -22 -47 -25 -68 -25 -145 2 -109 28 -177 96 -241 39 -38 148
-114 163 -114 4 0 75 -33 158 -74 209 -101 264 -158 272 -280 9 -151 -115
-256 -301 -256 -128 0 -243 58 -318 160 l-42 57 -40 -19 c-84 -43 -86 -45 -67
-76 104 -166 251 -246 473 -256 33 -1 86 5 153 18 45 8 149 61 182 93 79 74
115 167 110 279 -3 81 -7 98 -33 156 -43 96 -147 180 -321 260 -233 106 -304
155 -329 226 -18 52 -9 144 18 183 37 52 47 60 98 79 62 24 161 21 222 -7 42
-18 140 -106 140 -125 0 -5 22 7 50 26 27 19 55 36 62 38 9 3 5 17 -15 45 -65
93 -177 158 -292 169 -27 2 -55 6 -62 9 -6 2 -13 2 -15 0z"/>
<path d="M998 4455 c-2 -16 -2 -48 0 -70 l4 -40 214 2 c118 2 215 -1 216 -5 0
-4 2 -288 4 -632 1 -344 3 -628 3 -632 1 -5 35 -8 76 -8 l75 0 0 640 0 639
108 0 c59 0 157 0 217 0 l111 1 2 60 c1 45 -2 62 -13 66 -8 3 -239 7 -514 7
l-500 2 -3 -30z"/>
<path d="M2728 4482 c-27 -3 -28 -5 -28 -68 0 -44 4 -64 13 -65 6 0 104 -1
217 -2 l205 -2 0 -638 0 -638 75 3 75 3 2 595 c1 327 2 614 2 637 l1 41 173 0
c94 1 193 1 218 1 l47 1 -2 59 c0 33 -4 63 -8 67 -7 6 -934 12 -990 6z"/>
<path d="M3884 4478 c-4 -6 -7 -1076 -4 -1360 l0 -48 75 0 c53 0 75 4 76 13 0
6 2 322 2 701 1 451 -1 690 -8 692 -22 7 -137 9 -141 2z"/>
<path d="M4878 4485 c-2 -2 -26 -6 -53 -10 -129 -15 -270 -72 -368 -148 -339
-264 -363 -800 -48 -1094 216 -202 550 -254 828 -128 150 68 254 166 335 315
74 134 98 350 59 514 -43 180 -143 324 -293 422 -113 75 -223 112 -353 120
-38 3 -78 7 -87 8 -9 2 -18 2 -20 1z m194 -160 c78 -19 157 -60 218 -111 310
-257 253 -798 -101 -977 -41 -21 -87 -40 -103 -43 -16 -3 -34 -7 -38 -10 -21
-13 -190 -12 -253 1 -343 72 -529 422 -417 782 58 184 247 345 434 368 29 4
54 8 56 10 9 8 148 -5 204 -20z"/>
<path d="M2315 4413 c-15 -38 -33 -81 -40 -98 -7 -16 -52 -124 -100 -240 -113
-275 -174 -423 -191 -460 -65 -150 -224 -547 -220 -554 4 -6 111 -8 136 -2 3
1 25 53 50 116 l45 115 130 0 c371 2 588 0 591 -3 2 -2 24 -52 49 -112 24 -59
47 -110 50 -113 3 -4 40 -7 81 -7 64 -1 75 1 71 14 -5 17 -313 743 -363 856
-7 17 -35 84 -63 150 -27 66 -57 138 -67 160 -10 22 -18 42 -19 45 0 3 -11 27
-23 54 -12 27 -22 50 -22 52 0 18 -45 94 -55 94 -7 0 -25 -30 -40 -67z m80
-315 c18 -51 42 -115 52 -143 52 -132 145 -362 153 -380 6 -11 21 -50 35 -87
l25 -68 -305 0 -304 0 14 38 c7 20 20 53 28 72 19 46 30 74 32 80 1 3 5 14 10
25 41 98 194 489 205 523 7 23 15 40 17 38 3 -2 19 -46 38 -98z"/>
<path d="M5809 4473 c-1 -5 -2 -324 -3 -710 -1 -616 1 -702 14 -706 8 -2 40
-3 70 -2 l55 1 0 546 c0 301 3 544 6 540 4 -4 37 -45 74 -92 37 -47 72 -89 79
-95 6 -5 28 -31 49 -57 21 -26 43 -53 50 -60 7 -7 91 -105 187 -218 96 -113
177 -207 180 -210 3 -3 30 -34 60 -70 30 -36 57 -67 60 -70 3 -3 25 -30 50
-60 25 -30 60 -72 79 -92 19 -21 40 -47 48 -58 8 -11 21 -20 29 -20 12 0 14
98 14 713 l0 713 -70 0 -71 0 3 -549 3 -548 -24 28 c-12 15 -32 38 -42 51 -10
12 -19 24 -19 27 0 3 -8 13 -17 23 -20 21 -24 26 -182 212 -63 74 -120 140
-126 145 -6 6 -17 19 -25 31 -8 12 -43 52 -76 90 -34 38 -74 85 -90 104 -16
19 -33 40 -39 46 -5 6 -30 35 -55 64 -236 280 -267 312 -271 283z"/>
<path d="M50 2390 l0 -520 55 0 55 0 1 48 c0 26 0 106 0 177 l1 130 273 0
c151 -1 277 -4 281 -8 4 -3 6 -75 6 -159 0 -84 1 -161 4 -170 4 -14 16 -18 55
-18 32 0 49 4 50 13 1 6 2 241 3 520 l1 508 -55 -3 -55 -3 -2 -270 c-1 -148
-2 -279 -2 -290 -1 -20 -6 -20 -269 -19 -147 1 -272 2 -279 3 -8 1 -11 69 -11
249 -1 136 -1 266 -1 290 l-1 42 -55 0 -55 0 0 -520z"/>
<path d="M1390 2903 c-69 -12 -177 -56 -223 -91 -140 -109 -212 -269 -201
-451 2 -45 9 -92 15 -102 5 -10 8 -19 5 -19 -3 0 5 -21 16 -47 100 -228 342
-348 596 -296 334 68 503 432 346 745 -37 74 -124 161 -204 202 -103 54 -240
77 -350 59z m215 -108 c86 -24 171 -89 221 -167 46 -72 63 -145 60 -249 -3
-86 -6 -103 -39 -171 -40 -83 -102 -147 -178 -185 -63 -31 -92 -37 -199 -37
-87 0 -101 3 -162 32 -142 68 -227 201 -232 362 -2 59 8 132 23 165 5 11 17
38 27 60 39 88 176 188 278 202 22 3 42 6 43 7 7 6 114 -7 158 -19z"/>
<path d="M2130 2400 c0 -280 3 -511 8 -511 4 -1 28 -2 53 -4 l46 -1 -1 388 c0
213 0 388 0 388 1 0 13 -17 26 -37 23 -34 133 -177 177 -228 10 -12 41 -52 70
-90 75 -99 112 -138 121 -128 4 4 63 78 131 163 68 85 126 157 129 160 7 6 82
108 102 138 13 20 15 -18 14 -365 l0 -388 52 -1 c52 -2 52 -2 53 30 0 38 0
954 -1 979 0 10 -4 17 -9 15 -6 -1 -97 -111 -203 -244 -231 -287 -251 -312
-259 -326 -4 -6 -11 -9 -17 -7 -6 2 -65 72 -132 154 -293 364 -344 425 -352
425 -4 0 -8 -229 -8 -510z"/>
<path d="M3243 2398 l2 -513 325 0 325 0 0 45 0 45 -273 3 -273 2 3 128 3 127
215 1 c118 1 222 2 231 3 11 1 15 12 15 46 l1 45 -46 1 c-25 0 -130 0 -233 -1
l-188 -1 0 241 c0 185 3 240 13 241 6 1 123 1 259 1 l246 0 4 27 c2 14 2 36 0
49 l-3 22 -314 0 -314 0 2 -512z"/>
<path d="M4027 2903 c-3 -4 -4 -235 -3 -513 l1 -505 300 -1 301 -1 -2 26 c-1
14 -3 36 -3 49 l-1 22 -243 0 -244 0 0 463 0 462 -50 3 c-28 2 -53 -1 -56 -5z"/>
<path d="M4750 2397 l0 -514 325 0 c224 0 325 4 327 11 2 6 4 27 3 46 l0 35
-272 3 -272 2 0 128 -1 127 232 0 232 0 2 48 3 47 -82 1 c-45 0 -150 0 -234
-1 l-152 -1 0 241 c0 219 2 240 17 241 9 0 126 1 260 1 197 1 242 3 243 14 1
8 1 25 1 39 0 14 0 30 -1 35 -1 6 -113 10 -316 10 l-315 0 0 -513z"/>
<path d="M5745 2901 c-58 -16 -83 -30 -117 -64 -67 -67 -88 -157 -59 -256 16
-55 86 -126 162 -162 30 -15 94 -46 143 -70 139 -67 186 -128 171 -225 -14
-95 -93 -145 -223 -140 -106 3 -146 24 -224 119 l-23 29 -42 -23 c-41 -22 -42
-22 -27 -50 23 -46 95 -111 150 -136 84 -38 175 -48 284 -29 88 15 180 93 203
174 47 155 -25 281 -209 371 -49 23 -113 55 -143 69 -97 48 -141 112 -126 187
2 11 4 25 4 30 1 15 43 60 67 73 12 6 45 13 73 15 63 5 134 -25 174 -72 l27
-32 40 22 c22 13 40 28 40 35 0 20 -82 93 -130 115 -49 23 -164 34 -215 20z"/>
<path d="M6455 2885 c-103 -47 -140 -104 -140 -220 0 -138 46 -189 268 -294
148 -70 195 -109 212 -178 20 -77 -9 -142 -80 -185 -34 -19 -53 -23 -130 -23
-80 0 -95 3 -137 27 -37 22 -78 65 -114 117 -2 1 -23 -7 -47 -19 l-45 -22 20
-33 c129 -220 519 -230 625 -16 13 26 18 59 18 116 0 69 -4 87 -28 130 -35 63
-117 127 -210 166 -62 25 -183 89 -203 106 -46 40 -60 103 -38 167 20 58 76
90 155 89 66 -1 109 -21 155 -71 l32 -36 41 27 c23 15 41 30 41 32 0 16 -98
100 -138 118 -70 31 -191 32 -257 2z"/>
<path d="M375 1739 c-148 -28 -241 -130 -246 -269 -6 -149 72 -249 256 -330
99 -44 211 -103 247 -131 89 -71 103 -208 29 -286 -106 -111 -329 -101 -444
20 -15 16 -35 42 -44 58 l-17 28 -50 -27 c-28 -14 -52 -27 -54 -28 -15 -9 79
-121 137 -162 120 -86 341 -102 476 -35 137 67 198 208 159 362 -29 110 -102
181 -269 260 -186 88 -216 104 -246 133 -41 39 -58 84 -55 140 3 61 32 107 85
135 93 49 233 19 291 -62 14 -19 30 -35 35 -35 23 0 95 55 90 68 -19 51 -114
125 -189 147 -60 18 -139 24 -191 14z"/>
<path d="M970 1740 c-4 -3 -7 -275 -6 -605 l1 -600 383 -1 382 -1 0 49 c0 26
-1 51 -2 56 -2 4 -138 8 -303 8 -165 1 -308 2 -317 3 -14 1 -16 18 -17 151 l0
150 274 0 275 0 0 55 c0 45 -3 55 -17 56 -10 0 -134 1 -275 1 l-257 0 0 284
-1 284 309 0 309 0 -3 53 c-1 28 -3 54 -3 57 -2 7 -721 7 -732 0z"/>
<path d="M1856 1740 c-2 -5 1 -1187 3 -1203 1 -9 120 -7 122 2 1 3 3 72 3 153
1 81 5 150 9 154 3 3 66 8 139 9 l133 4 33 -47 c18 -26 70 -99 116 -162 l83
-115 77 -2 78 -3 -38 53 c-21 28 -47 66 -58 82 -12 17 -54 76 -95 133 -40 57
-72 104 -70 106 2 2 26 16 52 31 93 53 162 149 186 257 12 53 7 201 -8 241 -6
15 -8 27 -6 27 6 0 -21 50 -50 95 -58 89 -188 163 -315 181 -63 8 -391 12
-394 4z m446 -138 c102 -36 161 -99 191 -203 25 -88 3 -246 -43 -299 -11 -13
-20 -26 -20 -29 0 -9 -95 -72 -111 -74 -8 -2 -19 -6 -25 -9 -16 -11 -101 -21
-189 -22 -135 -3 -120 -44 -119 332 1 180 2 329 3 331 1 2 58 1 129 -1 93 -4
142 -11 184 -26z"/>
<path d="M2640 1743 c0 -4 60 -155 75 -188 23 -49 195 -457 195 -461 0 -2 9
-23 19 -47 11 -23 62 -143 114 -267 52 -123 100 -226 106 -228 10 -3 33 41 76
148 10 25 28 69 41 98 13 29 24 54 24 56 0 2 8 21 17 42 9 22 17 41 18 44 1 3
9 22 18 44 9 21 17 40 17 42 0 2 9 23 19 47 44 96 271 651 271 662 0 14 -105
14 -119 0 -5 -6 -28 -57 -51 -115 -22 -58 -47 -118 -55 -135 -7 -16 -48 -115
-90 -220 -42 -104 -83 -203 -90 -220 -30 -70 -57 -139 -60 -154 -2 -9 -10 -36
-18 -61 l-13 -45 -26 80 c-20 63 -123 321 -187 470 -11 27 -22 53 -98 240 -36
88 -67 162 -69 164 -4 5 -134 9 -134 4z"/>
<path d="M3785 1140 l0 -605 65 0 65 0 0 598 c0 329 -2 602 -5 605 -3 4 -32 7
-65 7 l-61 0 1 -605z"/>
<path d="M4618 1745 c-2 -2 -25 -5 -53 -8 -185 -18 -379 -152 -456 -315 -44
-94 -47 -101 -57 -155 -9 -44 -8 -215 1 -262 24 -122 106 -257 204 -336 109
-87 230 -129 383 -133 107 -3 263 29 282 58 4 6 8 8 8 4 0 -4 23 6 51 23 56
35 159 134 159 152 -1 7 -21 25 -45 40 l-45 29 -54 -55 c-93 -93 -202 -138
-336 -139 -79 -1 -117 6 -190 34 -187 72 -305 263 -296 478 4 92 19 148 58
222 77 146 213 233 383 245 150 10 269 -30 363 -124 46 -45 59 -53 72 -44 8 6
27 19 42 29 16 9 28 23 28 30 0 27 -102 121 -171 157 -69 36 -77 39 -157 56
-42 8 -169 19 -174 14z"/>
<path d="M5274 1741 c-2 -2 -4 -275 -4 -606 l0 -602 385 0 385 0 0 57 0 56
-297 0 c-164 -1 -308 1 -320 3 -23 3 -23 6 -23 152 l0 149 275 0 275 0 0 55
c0 50 -2 55 -22 56 -13 0 -137 0 -275 1 l-253 1 0 283 0 284 305 0 c168 0 306
3 306 8 5 33 5 102 0 103 -18 4 -733 3 -737 0z"/>
<path d="M6435 1735 c-156 -36 -246 -156 -232 -306 15 -147 78 -208 338 -328
178 -82 239 -145 241 -249 2 -85 -56 -165 -137 -188 -5 -1 -23 -7 -40 -12 -53
-15 -151 -5 -215 24 -56 25 -124 85 -149 131 l-11 22 -50 -25 c-28 -14 -50
-30 -50 -35 0 -15 37 -68 79 -112 39 -41 123 -89 189 -107 105 -28 264 -15
349 28 132 68 191 216 147 373 -15 52 -28 73 -78 124 -53 54 -83 73 -236 148
-191 94 -198 99 -225 141 -65 99 -13 238 96 262 93 19 176 -4 240 -68 26 -26
51 -48 54 -48 14 0 85 54 85 65 0 15 -65 85 -105 112 -69 47 -200 69 -290 48z"/>
</g>
</svg>
