<svg width="693" height="256" viewBox="0 0 693 256" fill="none" xmlns="http://www.w3.org/2000/svg">
<path d="M332.478 5.94971H329.067V250.044H332.478V5.94971Z" fill="#342B35"/>
<path d="M404.803 59.443C403.378 69.6475 399.04 74.9452 390.558 74.9452C379.417 74.9452 375.796 66.0149 375.796 51.2771C375.796 38.0741 379.682 27.9941 390.691 27.9941C399.624 27.9941 403.191 33.4815 404.352 42.7971L397.23 43.4371C396.255 37.6297 394.252 34.7615 390.817 34.7615C386.089 34.7615 383.628 39.6741 383.628 51.283C383.628 63.9764 385.764 68.2549 390.751 68.2549C394.444 68.2549 396.646 65.0015 397.615 58.7497L404.803 59.443Z" fill="#342B35"/>
<path d="M408.882 51.4727C408.882 36.2904 413.351 27.9941 424.228 27.9941C435.104 27.9941 439.64 36.2845 439.64 51.4727C439.64 66.5304 434.911 74.9512 424.228 74.9512C413.544 74.9453 408.882 66.5245 408.882 51.4727ZM431.807 51.4727C431.807 39.5438 429.281 34.566 424.234 34.566C419.247 34.566 416.72 39.5438 416.72 51.4727C416.72 63.846 419.439 68.4386 424.234 68.4386C429.148 68.4386 431.807 63.846 431.807 51.4727Z" fill="#342B35"/>
<path d="M467.751 74.3703L452.922 42.7259H452.796V74.3703H445.932V28.5688H454.805L467.564 56.3851H467.697V28.5688H474.693V74.3703H467.751Z" fill="#342B35"/>
<path d="M504.597 74.3703L489.768 42.7259H489.642V74.3703H482.778V28.5688H491.651L504.41 56.3851H504.542V28.5688H511.539V74.3703H504.597Z" fill="#342B35"/>
<path d="M519.624 74.3703V28.5688H543.391V35.4607H527.33V47.3896H539.313V54.0266H527.33V67.4844H544.233V74.3763H519.624V74.3703Z" fill="#342B35"/>
<path d="M576.995 59.443C575.569 69.6475 571.232 74.9452 562.75 74.9452C551.609 74.9452 547.987 66.0149 547.987 51.2771C547.987 38.0741 551.873 27.9941 562.882 27.9941C571.821 27.9941 575.382 33.4815 576.543 42.7971L569.421 43.4371C568.446 37.6297 566.443 34.7615 563.008 34.7615C558.28 34.7615 555.82 39.6741 555.82 51.283C555.82 63.9764 557.955 68.2549 562.942 68.2549C566.636 68.2549 568.837 65.0015 569.806 58.7497L576.995 59.443Z" fill="#342B35"/>
<path d="M588.719 74.3703V35.4607H579.136V28.5688H605.947V35.4607H596.365V74.3763H588.719V74.3703Z" fill="#342B35"/>
<path d="M610.995 74.3703V28.5688H618.701V74.3703H610.995Z" fill="#342B35"/>
<path d="M625.047 51.4727C625.047 36.2904 629.517 27.9941 640.393 27.9941C651.269 27.9941 655.805 36.2845 655.805 51.4727C655.805 66.5304 651.077 74.9512 640.393 74.9512C629.709 74.9453 625.047 66.5245 625.047 51.4727ZM647.973 51.4727C647.973 39.5438 645.446 34.566 640.399 34.566C635.412 34.566 632.886 39.5438 632.886 51.4727C632.886 63.846 635.605 68.4386 640.399 68.4386C645.32 68.4386 647.973 63.846 647.973 51.4727Z" fill="#342B35"/>
<path d="M683.916 74.3703L669.088 42.7259H668.962V74.3703H662.098V28.5688H670.971L683.73 56.3851H683.862V28.5688H690.858V74.3703H683.916Z" fill="#342B35"/>
<path d="M398.517 150.927V130.643H385.307V150.927H377.601V105.126H385.307V123.816H398.517V105.126H406.097V150.927H398.517Z" fill="#342B35"/>
<path d="M412.509 128.024C412.509 112.841 416.979 104.545 427.855 104.545C438.731 104.545 443.267 112.836 443.267 128.024C443.267 143.081 438.539 151.502 427.855 151.502C417.171 151.502 412.509 143.081 412.509 128.024ZM435.435 128.024C435.435 116.095 432.908 111.117 427.861 111.117C422.874 111.117 420.348 116.095 420.348 128.024C420.348 140.397 423.067 144.99 427.861 144.99C432.776 144.996 435.435 140.403 435.435 128.024Z" fill="#342B35"/>
<path d="M478.886 150.927V117.244H478.753L470.398 150.927H464.96L456.411 117.244H456.279V150.927H449.542V105.126H459.967L467.546 135.876H467.673L475.571 105.126H485.738V150.927H478.886Z" fill="#342B35"/>
<path d="M493.913 150.927V105.126H517.68V112.018H501.619V123.947H513.602V130.584H501.619V144.042H518.523V150.933H493.913V150.927Z" fill="#342B35"/>
<path d="M404.803 212.551C403.378 222.756 399.04 228.053 390.558 228.053C379.417 228.053 375.796 219.123 375.796 204.385C375.796 191.182 379.682 181.102 390.691 181.102C399.624 181.102 403.191 186.59 404.352 195.899L397.23 196.539C396.255 190.732 394.252 187.864 390.817 187.864C386.089 187.864 383.628 192.776 383.628 204.385C383.628 217.079 385.764 221.357 390.751 221.357C394.444 221.357 396.646 218.104 397.615 211.852L404.803 212.551Z" fill="#342B35"/>
<path d="M408.882 204.581C408.882 189.399 413.351 181.102 424.228 181.102C435.104 181.102 439.64 189.393 439.64 204.581C439.64 219.639 434.911 228.059 424.228 228.059C413.544 228.053 408.882 219.633 408.882 204.581ZM431.807 204.581C431.807 192.652 429.281 187.674 424.234 187.674C419.247 187.674 416.72 192.652 416.72 204.581C416.72 216.954 419.439 221.547 424.234 221.547C429.148 221.547 431.807 216.954 431.807 204.581Z" fill="#342B35"/>
<path d="M475.258 227.485V193.802H475.126L466.77 227.485H461.332L452.784 193.802H452.652V227.485H445.914V181.683H456.339L463.913 212.433H464.039L471.938 181.683H482.104V227.485H475.258Z" fill="#342B35"/>
<path d="M519.624 227.485V193.802H519.491L511.135 227.485H505.697L497.149 193.802H497.017V227.485H490.279V181.683H500.704L508.284 212.433H508.41L516.309 181.683H526.475V227.485H519.624Z" fill="#342B35"/>
<path d="M555.242 181.677H562.821V212.871C562.821 222.762 558.418 227.988 548.378 227.988C538.404 227.988 534.392 222.756 534.392 212.871V181.677H542.098V213.891C542.098 219.188 544.107 221.482 548.51 221.482C552.848 221.482 555.248 219.182 555.248 213.891V181.677H555.242Z" fill="#342B35"/>
<path d="M592.539 227.485L577.71 195.846H577.584V227.485H570.72V181.683H579.593L592.352 209.499H592.485V181.683H599.481V227.485H592.539Z" fill="#342B35"/>
<path d="M607.566 227.485V181.683H615.272V227.485H607.566Z" fill="#342B35"/>
<path d="M629.908 227.485V188.569H620.325V181.677H647.137V188.569H637.554V227.485H629.908Z" fill="#342B35"/>
<path d="M660.022 227.485V208.984L648.562 181.683H656.72L663.776 200.308H663.908L671.356 181.683H679.387L667.728 208.984V227.485H660.022Z" fill="#342B35"/>
<path d="M2.15381 55.1644V6.06812H10.1666V54.6192C10.1666 67.8815 17.5117 74.4533 29.3023 74.4533C40.9847 74.4533 48.438 67.8755 48.438 54.6192V6.06812H56.4508V55.1644C56.4508 72.5926 44.6602 81.4696 29.3023 81.4696C13.8362 81.4696 2.15381 72.5926 2.15381 55.1644Z" fill="#342B35"/>
<path d="M75.1114 29.517C72.9999 26.9985 69.8838 22.6133 69.8838 22.6133C69.8838 22.6133 70.5515 27.8755 70.5515 31.0518V81.357H62.9839V6.06812H64.3194L109.491 58.6726C111.602 61.1911 114.718 65.5763 114.718 65.5763C114.718 65.5763 114.165 60.314 114.165 57.1377V6.83256H121.618V82.1274H120.283L75.1114 29.517Z" fill="#342B35"/>
<path d="M128.157 6.06812H136.278V80.5926H128.157V6.06812Z" fill="#342B35"/>
<path d="M142.817 44.2074C142.817 21.7422 160.172 6.06812 181.648 6.06812C203.232 6.06812 220.587 21.7422 220.587 44.2074C220.587 66.6726 203.232 82.3466 181.648 82.3466C160.172 82.3466 142.817 66.6726 142.817 44.2074ZM212.244 44.2074C212.244 26.4533 199.34 13.1911 181.648 13.1911C164.071 13.1911 151.167 26.4533 151.167 44.2074C151.167 61.9614 164.071 75.2237 181.648 75.2237C199.334 75.2237 212.244 61.9614 212.244 44.2074Z" fill="#342B35"/>
<path d="M239.253 29.517C237.142 26.9985 234.026 22.6133 234.026 22.6133C234.026 22.6133 234.694 27.8755 234.694 31.0518V81.357H227.126V6.06812H228.461L273.633 58.6726C275.744 61.1911 278.86 65.5763 278.86 65.5763C278.86 65.5763 278.307 60.314 278.307 57.1377V6.83256H285.76V82.1274H284.425L239.253 29.517Z" fill="#342B35"/>
<path d="M2.15381 135.188L7.35131 132.456C10.1245 137.321 14.1971 141.505 22.5107 141.505C29.3565 141.505 34.7284 137.748 34.7284 131.603C34.7284 125.713 31.0047 122.726 23.6416 119.484L18.9615 117.351C10.5576 113.594 5.96771 109.588 5.96771 101.476C5.96771 93.1141 12.639 87.5674 21.476 87.5674C29.3625 87.5674 34.2953 91.1526 37.4174 96.2726L32.3944 99.3422C30.1445 95.757 27.0224 93.0252 21.476 93.0252C15.6709 93.0252 12.1217 96.3555 12.1217 101.304C12.1217 106.424 14.8949 108.729 21.476 111.716L26.1562 113.849C35.9436 118.116 40.9726 122.898 40.9726 131.597C40.9726 141.156 33.2606 146.957 22.6912 146.957C11.4239 146.969 5.27592 141.333 2.15381 135.188Z" fill="#342B35"/>
<path d="M59.5431 93.0311H41.436V87.5674H83.8883V93.0311H65.7813V145.6H59.5431V93.0311Z" fill="#342B35"/>
<path d="M97.0024 87.5674H98.0431L122.996 146.198H116.415L112.432 136.468H82.6311L78.7329 146.198H72.585L97.0024 87.5674ZM110.171 131.182L99.7756 105.41C98.6507 102.678 97.5257 98.5007 97.5257 98.5007C97.5257 98.5007 96.3106 102.684 95.1857 105.41L84.7907 131.182H110.171Z" fill="#342B35"/>
<path d="M129.787 93.0311H111.68V87.5674H154.132V93.0311H136.025V145.6H129.787V93.0311Z" fill="#342B35"/>
<path d="M160.491 87.5674H166.814V145.6H160.491V87.5674Z" fill="#342B35"/>
<path d="M173.184 117.268C173.184 99.7748 186.701 87.5674 203.419 87.5674C220.226 87.5674 233.737 99.7689 233.737 117.268C233.737 134.761 220.22 146.969 203.419 146.969C186.695 146.969 173.184 134.761 173.184 117.268ZM227.24 117.268C227.24 103.443 217.194 93.114 203.419 93.114C189.733 93.114 179.681 103.443 179.681 117.268C179.681 131.093 189.727 141.416 203.419 141.416C217.188 141.422 227.24 131.093 227.24 117.268Z" fill="#342B35"/>
<path d="M249.547 105.831C247.898 103.87 245.474 100.456 245.474 100.456C245.474 100.456 245.991 104.551 245.991 107.028V146.198H240.102V87.5674H241.143L276.316 128.533C277.964 130.495 280.389 133.908 280.389 133.908C280.389 133.908 279.956 129.813 279.956 127.336V88.1659H285.761V146.797H284.72L249.547 105.831Z" fill="#342B35"/>
<path d="M2.15381 152.19H6.74373V176.237H29.946V152.19H34.5359V194.886H29.946V180.385H6.74373V194.892H2.15381V152.19Z" fill="#F47B20"/>
<path d="M39.8838 173.28C39.8838 160.859 49.4787 152.19 61.3536 152.19C73.2886 152.19 82.8835 160.853 82.8835 173.28C82.8835 185.701 73.2886 194.37 61.3536 194.37C49.4787 194.37 39.8838 185.701 39.8838 173.28ZM78.2695 173.28C78.2695 163.461 71.135 156.13 61.3536 156.13C51.6323 156.13 44.4978 163.461 44.4978 173.28C44.4978 183.099 51.6323 190.43 61.3536 190.43C71.1289 190.43 78.2695 183.099 78.2695 173.28Z" fill="#F47B20"/>
<path d="M88.2253 152.19H88.8449L108.51 176.403L128.049 152.19H128.734V194.37H124.379V166.845C124.379 164.942 124.566 162.062 124.566 162.062C124.566 162.062 122.947 164.759 121.576 166.412L108.757 182.353H108.011L95.3778 166.412C94.0063 164.759 92.3279 162.062 92.3279 162.062C92.3279 162.062 92.5746 164.942 92.5746 166.845V194.37H88.2192V152.19H88.2253Z" fill="#F47B20"/>
<path d="M134.083 152.19H160.166V156.16H138.618V175.959H157.838V179.87H138.618V190.424H161.051V194.394H134.083V152.19Z" fill="#F47B20"/>
<path d="M166.398 152.19H170.934V190.424H191.159V194.394H166.398V152.19Z" fill="#F47B20"/>
<path d="M196.507 152.19H222.591V156.16H201.043V175.959H220.263V179.87H201.043V190.424H223.475V194.394H196.507V152.19Z" fill="#F47B20"/>
<path d="M227.036 186.033L230.73 184.095C232.697 187.55 235.59 190.524 241.504 190.524C246.364 190.524 250.184 187.858 250.184 183.49C250.184 179.307 247.537 177.185 242.304 174.88L238.977 173.363C233.004 170.696 229.743 167.846 229.743 162.086C229.743 156.142 234.483 152.201 240.764 152.201C246.364 152.201 249.877 154.75 252.091 158.388L248.524 160.569C246.924 158.021 244.704 156.083 240.77 156.083C236.643 156.083 234.123 158.447 234.123 161.967C234.123 165.606 236.09 167.241 240.77 169.363L244.096 170.88C251.05 173.914 254.624 177.31 254.624 183.49C254.624 190.281 249.144 194.406 241.636 194.406C233.623 194.4 229.25 190.394 227.036 186.033Z" fill="#F47B20"/>
<path d="M258.179 186.033L261.872 184.095C263.839 187.55 266.733 190.524 272.646 190.524C277.507 190.524 281.327 187.858 281.327 183.49C281.327 179.307 278.68 177.185 273.446 174.88L270.12 173.363C264.146 170.696 260.886 167.846 260.886 162.086C260.886 156.142 265.626 152.201 271.906 152.201C277.507 152.201 281.014 154.75 283.234 158.388L279.667 160.569C278.066 158.021 275.847 156.083 271.912 156.083C267.786 156.083 265.265 158.447 265.265 161.967C265.265 165.606 267.238 167.241 271.912 169.363L275.239 170.88C282.193 173.914 285.766 177.31 285.766 183.49C285.766 190.281 280.286 194.406 272.779 194.406C264.766 194.4 260.392 190.394 258.179 186.033Z" fill="#F47B20"/>
<path d="M2.15381 240.031L6.50912 237.743C8.83115 241.82 12.248 245.328 19.2141 245.328C24.953 245.328 29.4527 242.182 29.4527 237.032C29.4527 232.096 26.3306 229.595 20.1586 226.875L16.2424 225.079C9.19811 221.933 5.34811 218.573 5.34811 211.776C5.34811 204.765 10.9366 200.114 18.3479 200.114C24.953 200.114 29.0918 203.118 31.7086 207.408L27.4976 209.98C25.6087 206.976 22.9979 204.688 18.3479 204.688C13.4812 204.688 10.5035 207.479 10.5035 211.628C10.5035 215.918 12.8255 217.85 18.3479 220.356L22.2701 222.146C30.4754 225.725 34.6863 229.731 34.6863 237.026C34.6863 245.038 28.2255 249.903 19.3645 249.903C9.926 249.897 4.77061 245.18 2.15381 240.031Z" fill="#F47B20"/>
<path d="M39.8535 200.113H70.6415V204.8H45.2074V228.172H67.8923V232.788H45.2074V245.244H71.6822V249.932H39.8535V200.113Z" fill="#F47B20"/>
<path d="M109.653 249.932H103.331L93.5854 236.302C91.877 236.593 90.0181 236.741 88.2315 236.741H82.2099V249.926H76.856V200.107H88.2375C102.073 200.107 109.208 207.727 109.208 218.495C109.208 225.967 105.641 231.828 98.6445 234.613L109.653 249.932ZM87.9367 232.13C99.3905 232.13 103.632 226.341 103.632 218.501C103.632 210.661 99.3183 204.8 87.9367 204.8H82.2099V232.124H87.9367V232.13Z" fill="#F47B20"/>
<path d="M109.082 200.113H114.748L128.326 233.09C129.342 235.52 130.431 239.668 130.431 239.668C130.431 239.668 131.52 235.52 132.536 233.09L146.042 200.113H151.341L130.792 249.25H129.92L109.082 200.113Z" fill="#F47B20"/>
<path d="M156.509 200.113H161.935V249.932H156.509V200.113Z" fill="#F47B20"/>
<path d="M167.108 225.007C167.108 210.341 178.436 200.113 192.452 200.113C201.163 200.113 207.846 203.33 212.057 209.553L208.063 212.415C204.868 207.763 199.569 204.758 192.452 204.758C180.908 204.758 172.559 213.416 172.559 225.001C172.559 236.587 180.908 245.244 192.452 245.244C199.641 245.244 205.157 242.169 208.718 237.09L212.785 239.881C208.43 246.175 201.313 249.896 192.452 249.896C178.436 249.896 167.108 239.668 167.108 225.007Z" fill="#F47B20"/>
<path d="M217.946 200.113H248.734V204.8H223.3V228.172H245.985V232.788H223.3V245.244H249.775V249.932H217.946V200.113Z" fill="#F47B20"/>
<path d="M253.228 240.03L257.583 237.742C259.905 241.819 263.322 245.328 270.288 245.328C276.027 245.328 280.527 242.181 280.527 237.031C280.527 232.095 277.405 229.594 271.233 226.874L267.311 225.085C260.266 221.938 256.416 218.578 256.416 211.781C256.416 204.771 262.005 200.119 269.416 200.119C276.021 200.119 280.16 203.123 282.777 207.413L278.566 209.985C276.677 206.981 274.066 204.693 269.416 204.693C264.549 204.693 261.572 207.485 261.572 211.633C261.572 215.923 263.894 217.855 269.416 220.362L273.338 222.151C281.544 225.731 285.754 229.736 285.754 237.031C285.754 245.043 279.294 249.908 270.433 249.908C260.994 249.896 255.839 245.179 253.228 240.03Z" fill="#F47B20"/>
</svg>
