<svg width="123" height="108" viewBox="0 0 123 108" fill="none" xmlns="http://www.w3.org/2000/svg">
<path d="M0.87793 22.3498V1.01562H4.30248V22.113C4.30248 27.8761 7.44056 30.734 12.4841 30.734C17.4777 30.734 20.6657 27.8761 20.6657 22.113V1.01562H24.0902V22.3525C24.0902 29.9235 19.0493 33.7814 12.4841 33.7814C5.87152 33.7788 0.87793 29.9235 0.87793 22.3498Z" fill="#342B35"/>
<path d="M32.0692 11.2051C31.1651 10.1104 29.8326 8.2051 29.8326 8.2051C29.8326 8.2051 30.1191 10.4919 30.1191 11.8709V33.7314H26.8838V1.01562H27.4541L46.7635 23.8762C47.6676 24.9709 49.0001 26.8762 49.0001 26.8762C49.0001 26.8762 48.7636 24.5893 48.7636 23.2104V1.3472H51.949V34.0656H51.3787L32.0692 11.2051Z" fill="#342B35"/>
<path d="M54.7456 1.01562H58.2175V33.3998H54.7456V1.01562Z" fill="#342B35"/>
<path d="M61.0137 17.5864C61.0137 7.82322 68.4331 1.0127 77.6134 1.0127C86.841 1.0127 94.2605 7.82322 94.2605 17.5864C94.2605 27.3495 86.841 34.1601 77.6134 34.1601C68.4331 34.1601 61.0137 27.3495 61.0137 17.5864ZM90.694 17.5864C90.694 9.87059 85.1774 4.11006 77.6134 4.11006C70.0994 4.11006 64.5801 9.87322 64.5801 17.5864C64.5801 25.3022 70.0967 31.0627 77.6134 31.0627C85.1748 31.0653 90.694 25.3022 90.694 17.5864Z" fill="#342B35"/>
<path d="M102.24 11.2051C101.336 10.1104 100.004 8.2051 100.004 8.2051C100.004 8.2051 100.29 10.4919 100.29 11.8709V33.7314H97.0547V1.01562H97.625L116.934 23.8762C117.839 24.9709 119.171 26.8762 119.171 26.8762C119.171 26.8762 118.934 24.5893 118.934 23.2104V1.3472H122.12V34.0656H121.55L102.24 11.2051Z" fill="#342B35"/>
<path d="M0.87793 57.1237L3.09876 55.9369C4.28408 58.0501 6.02396 59.8685 9.57992 59.8685C12.5051 59.8685 14.8022 58.2369 14.8022 55.5658C14.8022 53.008 13.2095 51.7106 10.0609 50.3001L8.06081 49.3737C4.46806 47.7422 2.50479 46.0001 2.50479 42.4764C2.50479 38.8422 5.35639 36.4316 9.13312 36.4316C12.5025 36.4316 14.6156 37.9895 15.9481 40.2132L13.8008 41.5474C12.8389 39.9895 11.5038 38.8027 9.13312 38.8027C6.6521 38.8027 5.13299 40.2501 5.13299 42.4001C5.13299 44.6237 6.31831 45.6264 9.13312 46.9237L11.1332 47.8501C15.3173 49.7053 17.4672 51.7816 17.4672 55.5632C17.4672 59.7159 14.1714 62.2395 9.65351 62.2395C4.84126 62.2422 2.21306 59.7948 0.87793 57.1237Z" fill="#342B35"/>
<path d="M25.4124 38.8053H17.6724V36.4316H35.8201V38.8053H28.0801V61.6501H25.4124V38.8053Z" fill="#342B35"/>
<path d="M41.4286 36.4316H41.8727L52.538 61.908H49.7232L48.0201 57.6816H35.2786L33.6123 61.908H30.9814L41.4286 36.4316ZM47.0555 55.3816L42.6113 44.1816C42.1303 42.9948 41.6493 41.179 41.6493 41.179C41.6493 41.179 41.1316 42.9974 40.6506 44.1816L36.2063 55.3816H47.0555Z" fill="#342B35"/>
<path d="M55.4422 38.8053H47.7021V36.4316H65.8499V38.8053H58.1098V61.6501H55.4422V38.8053Z" fill="#342B35"/>
<path d="M68.5698 36.4316H71.2743V61.6474H68.5698V36.4316Z" fill="#342B35"/>
<path d="M73.9946 49.3369C73.9946 41.7343 79.7714 36.4316 86.9201 36.4316C94.1056 36.4316 99.8824 41.7343 99.8824 49.3369C99.8824 56.9395 94.1056 62.2422 86.9201 62.2422C79.7714 62.2422 73.9946 56.9395 73.9946 49.3369ZM97.1044 49.3369C97.1044 43.329 92.8073 38.8422 86.9201 38.8422C81.0671 38.8422 76.7726 43.329 76.7726 49.3369C76.7726 55.3448 81.0698 59.8316 86.9201 59.8316C92.8099 59.8316 97.1044 55.3448 97.1044 49.3369Z" fill="#342B35"/>
<path d="M106.64 44.3685C105.935 43.5159 104.9 42.0316 104.9 42.0316C104.9 42.0316 105.123 43.8106 105.123 44.8869V61.908H102.605V36.4316H103.05L118.086 54.2316C118.79 55.0843 119.825 56.5685 119.825 56.5685C119.825 56.5685 119.639 54.7895 119.639 53.7132V36.6922H122.12V62.1685H121.676L106.64 44.3685Z" fill="#342B35"/>
<path d="M0.87793 64.5127H2.83857V74.9627H12.7574V64.5127H14.7207V83.0653H12.7574V76.7627H2.8412V83.0653H0.87793V64.5127Z" fill="#F47B20"/>
<path d="M17.0073 73.6759C17.0073 68.2785 21.11 64.5127 26.185 64.5127C31.2864 64.5127 35.389 68.2785 35.389 73.6759C35.389 79.0732 31.2864 82.839 26.185 82.839C21.11 82.839 17.0073 79.0732 17.0073 73.6759ZM33.4178 73.6759C33.4178 69.4101 30.3665 66.2232 26.185 66.2232C22.0298 66.2232 18.9785 69.4101 18.9785 73.6759C18.9785 77.9416 22.0298 81.1285 26.185 81.1285C30.3665 81.1285 33.4178 77.9416 33.4178 73.6759Z" fill="#F47B20"/>
<path d="M37.6755 64.5127H37.9409L46.3486 75.0337L54.7036 64.5127H54.9953V82.839H53.132V70.8785C53.132 70.0522 53.2108 68.7995 53.2108 68.7995C53.2108 68.7995 52.5196 69.9706 51.9335 70.6916L46.4537 77.618H46.1357L40.7347 70.6916C40.1486 69.9732 39.4311 68.7995 39.4311 68.7995C39.4311 68.7995 39.5362 70.0522 39.5362 70.8785V82.839H37.6729V64.5127H37.6755Z" fill="#F47B20"/>
<path d="M57.2793 64.5127H68.4308V66.239H59.2189V74.8416H67.4347V76.5416H59.2189V81.1259H68.8092V82.8522H57.2793V64.5127Z" fill="#F47B20"/>
<path d="M71.0933 64.5127H73.0329V81.1259H81.6797V82.8522H71.0933V64.5127Z" fill="#F47B20"/>
<path d="M83.9658 64.5127H95.1173V66.239H85.9054V74.8416H94.1212V76.5416H85.9054V81.1259H95.4958V82.8522H83.9684V64.5127H83.9658Z" fill="#F47B20"/>
<path d="M97.0176 79.2153L98.5971 78.3732C99.4381 79.8759 100.676 81.1653 103.202 81.1653C105.281 81.1653 106.913 80.0048 106.913 78.1074C106.913 76.289 105.78 75.368 103.543 74.3653L102.122 73.7074C99.5696 72.5469 98.174 71.3101 98.174 68.8074C98.174 66.2259 100.2 64.5127 102.884 64.5127C105.278 64.5127 106.779 65.6206 107.725 67.1995L106.198 68.1469C105.515 67.039 104.566 66.1969 102.881 66.1969C101.118 66.1969 100.04 67.2259 100.04 68.7522C100.04 70.3338 100.881 71.0443 102.881 71.968L104.303 72.6259C107.275 73.9443 108.802 75.418 108.802 78.1074C108.802 81.0601 106.461 82.8495 103.249 82.8495C99.8324 82.8522 97.9637 81.1127 97.0176 79.2153Z" fill="#F47B20"/>
<path d="M110.332 79.2153L111.912 78.3732C112.753 79.8759 113.99 81.1653 116.516 81.1653C118.595 81.1653 120.227 80.0048 120.227 78.1074C120.227 76.289 119.094 75.368 116.858 74.3653L115.436 73.7074C112.884 72.5469 111.488 71.3101 111.488 68.8074C111.488 66.2259 113.515 64.5127 116.198 64.5127C118.592 64.5127 120.093 65.6206 121.039 67.1995L119.512 68.1469C118.829 67.039 117.88 66.1969 116.196 66.1969C114.432 66.1969 113.354 67.2259 113.354 68.7522C113.354 70.3338 114.198 71.0443 116.196 71.968L117.617 72.6259C120.59 73.9443 122.117 75.418 122.117 78.1074C122.117 81.0601 119.775 82.8495 116.564 82.8495C113.147 82.8522 111.278 81.1127 110.332 79.2153Z" fill="#F47B20"/>
<path d="M0.87793 102.682L2.74133 101.687C3.73479 103.458 5.19344 104.982 8.17383 104.982C10.6259 104.982 12.5498 103.614 12.5498 101.377C12.5498 99.2319 11.2147 98.1451 8.57594 96.9635L6.89915 96.1872C3.88722 94.8188 2.24197 93.3583 2.24197 90.4056C2.24197 87.3583 4.63101 85.3398 7.79799 85.3398C10.6233 85.3398 12.3921 86.6451 13.5091 88.5109L11.7088 89.6293C10.9019 88.3241 9.78492 87.3293 7.79799 87.3293C5.71908 87.3293 4.4444 88.5425 4.4444 90.3451C4.4444 92.2109 5.43787 93.0504 7.79799 94.1372L9.47479 94.9135C12.9834 96.4688 14.7838 98.2083 14.7838 101.379C14.7838 104.861 12.0215 106.974 8.23427 106.974C4.19998 106.971 1.99492 104.919 0.87793 102.682Z" fill="#F47B20"/>
<path d="M16.9966 85.3369H30.1586V87.3738H19.2857V97.529H28.9838V99.5343H19.2857V104.947H30.6054V106.984H16.9966V85.3369Z" fill="#F47B20"/>
<path d="M46.835 106.985H44.1332L39.9675 101.064C39.2368 101.19 38.4405 101.256 37.6783 101.256H35.1026V106.987H32.8135V85.3398H37.6783C43.5917 85.3398 46.6457 88.6504 46.6457 93.3293C46.6457 96.5767 45.1187 99.124 42.1305 100.335L46.835 106.985ZM37.5521 99.2504C42.4485 99.2504 44.2619 96.7346 44.2619 93.3293C44.2619 89.9241 42.4169 87.3767 37.5521 87.3767H35.1026V99.2504H37.5521Z" fill="#F47B20"/>
<path d="M46.5903 85.3369H49.0109L54.8166 99.6659C55.2503 100.724 55.7181 102.526 55.7181 102.526C55.7181 102.526 56.1833 100.724 56.6196 99.6659L62.3937 85.3369H64.6592L55.8731 106.69H55.4999L46.5903 85.3369Z" fill="#F47B20"/>
<path d="M66.8667 85.3369H69.1874V106.984H66.8667V85.3369Z" fill="#F47B20"/>
<path d="M71.3979 96.1527C71.3979 89.7817 76.2417 85.3369 82.2314 85.3369C85.9556 85.3369 88.8124 86.7369 90.6127 89.4395L88.9044 90.6817C87.5378 88.6606 85.2722 87.3553 82.2314 87.3553C77.2956 87.3553 73.7265 91.1159 73.7265 96.1527C73.7265 101.187 77.2956 104.95 82.2314 104.95C85.3038 104.95 87.6639 103.613 89.1856 101.405L90.9229 102.618C89.0595 105.353 86.0187 106.971 82.2314 106.971C76.2391 106.971 71.3979 102.526 71.3979 96.1527Z" fill="#F47B20"/>
<path d="M93.1333 85.3369H106.295V87.3738H95.4225V97.529H105.121V99.5343H95.4225V104.947H106.742V106.984H93.1333V85.3369Z" fill="#F47B20"/>
<path d="M108.214 102.682L110.077 101.687C111.071 103.458 112.529 104.982 115.51 104.982C117.962 104.982 119.886 103.614 119.886 101.377C119.886 99.2319 118.551 98.1451 115.912 96.9635L114.235 96.1872C111.223 94.8188 109.578 93.3583 109.578 90.4056C109.578 87.3583 111.967 85.3398 115.134 85.3398C117.959 85.3398 119.728 86.6451 120.845 88.5109L119.045 89.6293C118.238 88.3241 117.121 87.3293 115.134 87.3293C113.055 87.3293 111.78 88.5425 111.78 90.3451C111.78 92.2109 112.774 93.0504 115.134 94.1372L116.811 94.9135C120.319 96.4688 122.12 98.2083 122.12 101.379C122.12 104.861 119.357 106.974 115.57 106.974C111.536 106.971 109.333 104.919 108.214 102.682Z" fill="#F47B20"/>
</svg>
