<svg width="24" height="25" viewBox="0 0 24 25" fill="none" xmlns="http://www.w3.org/2000/svg">
<g id="mdi:video">
<path id="Vector" d="M17 10.7715V7.27148C17 7.00627 16.8946 6.75191 16.7071 6.56438C16.5196 6.37684 16.2652 6.27148 16 6.27148H4C3.73478 6.27148 3.48043 6.37684 3.29289 6.56438C3.10536 6.75191 3 7.00627 3 7.27148V17.2715C3 17.5367 3.10536 17.7911 3.29289 17.9786C3.48043 18.1661 3.73478 18.2715 4 18.2715H16C16.2652 18.2715 16.5196 18.1661 16.7071 17.9786C16.8946 17.7911 17 17.5367 17 17.2715V13.7715L21 17.7715V6.77148L17 10.7715Z" fill="#111010"/>
</g>
</svg>
