<svg width="66" height="66" viewBox="0 0 66 66" fill="none" xmlns="http://www.w3.org/2000/svg">
<g id="ph:warning-bold">
<path id="Vector" d="M61.942 47.9782L39.3963 8.82424C38.7433 7.70743 37.8092 6.78106 36.687 6.13729C35.5649 5.49352 34.2937 5.15479 33 5.15479C31.7062 5.15479 30.4351 5.49352 29.3129 6.13729C28.1907 6.78106 27.2567 7.70743 26.6036 8.82424L4.05794 47.9782C3.42429 49.062 3.09033 50.2948 3.09033 51.5502C3.09033 52.8056 3.42429 54.0384 4.05794 55.1222C4.70373 56.2446 5.6365 57.1749 6.76054 57.8178C7.88458 58.4607 9.15942 58.793 10.4543 58.7806H55.5457C56.8396 58.7921 58.1134 58.4594 59.2365 57.8165C60.3595 57.1737 61.2915 56.2438 61.9368 55.1222C62.5713 54.0389 62.9061 52.8063 62.907 51.5509C62.9079 50.2955 62.5749 49.0625 61.942 47.9782ZM56.5795 52.0259C56.4746 52.2046 56.3235 52.3516 56.1419 52.4514C55.9604 52.5513 55.7553 52.6002 55.5483 52.5931H10.4543C10.2472 52.6002 10.0421 52.5513 9.86057 52.4514C9.67905 52.3516 9.52787 52.2046 9.42301 52.0259C9.33408 51.8813 9.28699 51.7148 9.28699 51.5451C9.28699 51.3753 9.33408 51.2089 9.42301 51.0642L31.9687 11.9103C32.0804 11.7384 32.2332 11.5972 32.4133 11.4994C32.5934 11.4017 32.795 11.3505 33 11.3505C33.2049 11.3505 33.4066 11.4017 33.5867 11.4994C33.7668 11.5972 33.9196 11.7384 34.0312 11.9103L56.5743 51.0642C56.6641 51.2084 56.712 51.3746 56.7129 51.5443C56.7139 51.7141 56.6677 51.8808 56.5795 52.0259ZM29.9062 35.0618V26.8118C29.9062 25.9913 30.2322 25.2044 30.8124 24.6242C31.3925 24.044 32.1795 23.7181 33 23.7181C33.8205 23.7181 34.6074 24.044 35.1876 24.6242C35.7678 25.2044 36.0937 25.9913 36.0937 26.8118V35.0618C36.0937 35.8823 35.7678 36.6692 35.1876 37.2494C34.6074 37.8296 33.8205 38.1556 33 38.1556C32.1795 38.1556 31.3925 37.8296 30.8124 37.2494C30.2322 36.6692 29.9062 35.8823 29.9062 35.0618ZM37.125 45.3743C37.125 46.1902 36.883 46.9877 36.4298 47.666C35.9765 48.3444 35.3323 48.8731 34.5785 49.1853C33.8248 49.4975 32.9954 49.5792 32.1952 49.4201C31.3951 49.2609 30.66 48.868 30.0832 48.2911C29.5063 47.7142 29.1134 46.9792 28.9542 46.1791C28.7951 45.3789 28.8768 44.5495 29.189 43.7957C29.5012 43.042 30.0299 42.3978 30.7082 41.9445C31.3866 41.4912 32.1841 41.2493 33 41.2493C34.094 41.2493 35.1432 41.6839 35.9168 42.4575C36.6904 43.2311 37.125 44.2803 37.125 45.3743Z" fill="#EC8537"/>
</g>
</svg>
