<svg width="25" height="26" viewBox="0 0 25 26" fill="none" xmlns="http://www.w3.org/2000/svg">
<g id="ph:x">
<path id="Vector" d="M20.0839 19.7504C20.1565 19.823 20.2141 19.9092 20.2534 20.004C20.2927 20.0989 20.3129 20.2005 20.3129 20.3032C20.3129 20.4058 20.2927 20.5075 20.2534 20.6023C20.2141 20.6971 20.1565 20.7833 20.0839 20.8559C20.0113 20.9285 19.9252 20.9861 19.8303 21.0254C19.7355 21.0646 19.6338 21.0849 19.5312 21.0849C19.4285 21.0849 19.3269 21.0646 19.2321 21.0254C19.1372 20.9861 19.051 20.9285 18.9785 20.8559L12.4999 14.3764L6.02143 20.8559C5.87484 21.0025 5.67601 21.0849 5.4687 21.0849C5.26138 21.0849 5.06256 21.0025 4.91596 20.8559C4.76937 20.7093 4.68701 20.5105 4.68701 20.3032C4.68701 20.0959 4.76937 19.897 4.91596 19.7504L11.3955 13.2719L4.91596 6.7934C4.76937 6.64681 4.68701 6.44798 4.68701 6.24067C4.68701 6.03335 4.76937 5.83453 4.91596 5.68793C5.06256 5.54134 5.26138 5.45898 5.4687 5.45898C5.67601 5.45898 5.87484 5.54134 6.02143 5.68793L12.4999 12.1674L18.9785 5.68793C19.1251 5.54134 19.3239 5.45898 19.5312 5.45898C19.7385 5.45898 19.9373 5.54134 20.0839 5.68793C20.2305 5.83453 20.3129 6.03335 20.3129 6.24067C20.3129 6.44798 20.2305 6.64681 20.0839 6.7934L13.6044 13.2719L20.0839 19.7504Z" fill="#111010"/>
</g>
</svg>
